<?xml version="1.0" encoding="UTF-8" standalone="no"?>
<!-- Created with Inkscape (http://www.inkscape.org/) -->

<svg
   width="210mm"
   height="297mm"
   viewBox="0 0 210 297"
   version="1.1"
   id="svg9888"
   sodipodi:docname="herosanra.svg"
   inkscape:version="1.2-dev (832ea22, 2021-08-23)"
   xmlns:inkscape="http://www.inkscape.org/namespaces/inkscape"
   xmlns:sodipodi="http://sodipodi.sourceforge.net/DTD/sodipodi-0.dtd"
   xmlns="http://www.w3.org/2000/svg"
   xmlns:svg="http://www.w3.org/2000/svg">
  <sodipodi:namedview
     id="namedview9890"
     pagecolor="#505050"
     bordercolor="#eeeeee"
     borderopacity="1"
     inkscape:pageshadow="0"
     inkscape:pageopacity="0.24705882"
     inkscape:pagecheckerboard="false"
     inkscape:document-units="mm"
     showgrid="false"
     inkscape:zoom="0.68506594"
     inkscape:cx="33.57341"
     inkscape:cy="413.82878"
     inkscape:window-width="1680"
     inkscape:window-height="987"
     inkscape:window-x="-8"
     inkscape:window-y="-8"
     inkscape:window-maximized="1"
     inkscape:current-layer="layer3"
     showguides="false"
     showborder="false"
     inkscape:showpageshadow="false" />
  <defs
     id="defs9885" />
  <g
     inkscape:groupmode="layer"
     id="layer3"
     inkscape:label="Ebene 2">
    <path
       style="fill:#e9afaf;fill-opacity:1;fill-rule:nonzero;stroke:none;stroke-width:0.264583"
       id="path31239"
       d="m 91.935272,128.5396 c -0.187057,0.54334 -0.671184,2.59368 0.0049,2.93384 0.189217,-0.0395 0.411279,-0.005 0.56765,-0.11834 0.01855,-0.0135 0.317963,-0.92042 0.331354,-0.96297 0.197644,-0.62803 0.349528,-1.25224 0.465601,-1.89965 0.06827,-0.74209 0.373065,-1.11217 -1.048946,-0.56047 -0.04748,0.0184 -0.216406,0.65143 -0.268224,0.83463 -0.07642,0.52824 -0.297416,1.28619 0.217688,1.64671 -0.0032,0.0275 0.385152,0.0722 0.388313,0.0447 v 0 c 0.5998,-0.15731 0.674082,-0.95708 0.808186,-1.46655 0.02268,-0.22129 0.100991,-0.86189 0.05077,-0.90216 -1.151067,-0.9231 -1.009589,-0.4783 -1.222806,0.22521 -0.182727,0.84502 -0.300205,1.68999 -0.291047,2.55706 0.0016,0.14549 -0.06758,0.32261 0.02379,0.43584 0.122507,0.15186 0.352901,0.16653 0.529352,0.24979 0.771985,-0.25311 0.869016,-2.16934 0.871648,-2.82535 0.0136,-0.10099 -1.414613,-0.29333 -1.428213,-0.19233 z" />
    <path
       style="fill:#e9afaf;fill-opacity:1;fill-rule:nonzero;stroke:none;stroke-width:0.264583"
       id="path31241"
       d="m 92.413597,129.14816 c -0.614778,0.52883 -0.798052,1.26713 -1.028661,2.00695 -0.01765,0.04 0.54823,0.28949 0.565873,0.24948 v 0 c 0.462568,-0.55849 1.001717,-1.07401 1.265002,-1.76475 0.03477,-0.0567 -0.767445,-0.5484 -0.802214,-0.49168 z" />
    <path
       style="fill:#e9afaf;fill-opacity:1;fill-rule:nonzero;stroke:none;stroke-width:0.264583"
       id="path31243"
       d="m 93.270243,128.80368 c -0.387963,0.42734 -1.398161,1.93304 -1.080031,2.54869 0.07515,0.14544 0.223633,0.23915 0.335449,0.35873 0.216715,-0.0451 0.445418,-0.0512 0.650145,-0.13544 0.54842,-0.22557 0.956553,-0.98244 1.15094,-1.50753 0.01341,-0.50415 0.08647,-0.44065 -0.97889,-0.33244 -0.08162,0.008 -0.08081,0.14324 -0.11226,0.21901 -0.03538,0.0852 -0.165766,0.27421 -0.07377,0.26686 0.292928,-0.0234 0.580136,-0.0941 0.870207,-0.14121 0.182816,-0.50845 0.319317,-1.08036 0.207621,-1.62331 -0.02146,-0.10433 0.0065,-0.27955 -0.09704,-0.30446 -0.446251,-0.10733 -0.917355,-0.0332 -1.376034,-0.0499 -0.760204,0.87285 -1.336204,2.02545 -1.004001,3.19183 0.588131,1.14133 1.388707,0.14408 1.856845,-0.45571 0.47879,-0.70653 0.734796,-1.55742 0.301041,-2.33403 -0.141579,-0.0968 -0.257268,-0.2534 -0.424736,-0.29033 -1.16735,-0.25747 -1.906923,0.96848 -2.277655,1.84526 -0.232204,0.9077 -0.01183,1.96958 1.192062,1.7357 0.159461,-0.031 0.286723,-0.15277 0.430083,-0.22916 0.367188,-0.48589 0.308869,-0.21218 0.131434,-0.82921 0.0071,-0.0161 -0.220401,-0.11646 -0.227499,-0.10037 v 0 c -0.512387,0.0766 -0.329404,-0.042 -0.602626,0.25437 -0.04017,0.0649 -0.107206,0.1196 -0.120523,0.19478 -0.01199,0.0677 0.06037,0.13181 0.05062,0.19982 -0.0057,0.0398 -0.07991,0.11847 -0.09066,0.0797 -0.01172,-0.0423 0.06126,-0.0637 0.08481,-0.10082 0.143435,-0.22585 0.248549,-0.4747 0.399624,-0.69608 0.163353,-0.2712 0.322966,-0.54575 0.502504,-0.80687 0.07012,-0.10199 0.144833,-0.20085 0.221605,-0.29793 0.04351,-0.055 0.159591,-0.091 0.138959,-0.15802 -0.04569,-0.14846 -0.466225,-0.008 -0.316714,-0.34181 -0.01955,-0.10517 -0.0019,-0.0241 -0.0072,0.1202 -0.01246,0.33305 -0.0437,0.64108 -0.117904,0.9666 -0.02892,0.12686 -0.05944,0.25334 -0.08916,0.38001 -0.09632,0.23195 -0.118272,0.35405 -0.287113,0.53254 -0.04496,0.0475 -0.18256,0.0561 -0.157829,0.11664 0.02719,0.0666 0.15331,-0.0152 0.214598,0.0224 0.341974,0.20997 0.08554,0.28556 0.273145,0.21356 0.435057,-0.74335 0.620459,-1.61598 1.034386,-2.37293 -0.293973,-0.1857 -0.584652,-0.37672 -0.881922,-0.55709 -0.08323,-0.0505 -0.06758,0.18358 -0.08541,0.27928 -0.08665,0.46508 -0.102108,0.92452 0.02275,1.38632 0.940594,0.59371 0.577101,0.73585 0.940171,0.46565 0.01405,-0.0104 0.288933,-0.20556 0.278743,-0.21615 -0.664897,-0.69107 -0.735203,-0.15229 -0.677388,-0.50001 -0.09626,0.24694 -0.811184,1.11683 -0.808723,1.18713 0.0029,0.0831 0.137673,0.0931 0.20651,0.13969 0.03147,0.0916 0.02357,0.20882 0.09441,0.27494 0.0078,0.007 0.159181,-0.26426 0.29125,-0.45812 0.362599,-0.53223 0.757918,-1.04451 0.955609,-1.66973 0.03331,-0.0665 -0.907063,-0.53757 -0.940374,-0.47107 z" />
    <path
       style="fill:#e9afaf;fill-opacity:1;fill-rule:nonzero;stroke:none;stroke-width:0.264583"
       id="path31245"
       d="m 100.26166,127.52312 c 0.20129,1.01564 0.67717,1.79608 1.56616,2.33128 0.11649,0.0701 0.22686,0.18225 0.36276,0.18654 0.15978,0.005 0.30119,-0.10724 0.45178,-0.16086 0.0332,-0.1874 0.10613,-0.37199 0.0996,-0.5622 -0.0488,-1.42522 -1.23015,-2.4311 -2.37543,-3.04688 -1.456475,-0.30373 -2.137494,0.54106 -2.136443,1.91872 2.14e-4,0.28382 0.02013,0.57491 0.109064,0.84445 0.09056,0.27449 0.279892,0.50581 0.419838,0.75872 0.44442,0.50479 1.426381,1.35009 2.130061,0.62948 0.38707,-0.39637 0.24668,-0.95385 0.21657,-1.41428 -0.19807,-0.94965 -1.450644,-2.74789 -2.258094,-0.91168 -0.100756,0.22912 0.11053,0.48824 0.165793,0.73237 0.186947,0.19806 0.373891,0.39612 0.560835,0.59418 0.01233,0.0363 0.525926,-0.13824 0.513586,-0.17456 v 0 c 0.0178,-0.2134 0.0356,-0.42681 0.0534,-0.64021 -0.16935,-0.67594 0.0771,-0.17745 -0.815889,-0.17606 -0.08262,1.2e-4 -0.125576,-0.22369 -0.184359,-0.16565 -0.01463,0.0145 0.186196,0.25844 0.369761,0.56669 0.08573,0.14395 0.161142,0.29381 0.241713,0.44072 0.07415,0.13875 0.13784,0.28363 0.222459,0.41626 0.06163,0.0966 0.137735,0.18352 0.214475,0.2686 0.0746,0.0827 0.20501,0.12752 0.23856,0.23365 0.017,0.0539 -0.12553,0.0226 -0.16898,-0.0135 -0.19676,-0.16366 -0.28958,-0.54217 -0.364409,-0.75046 -0.05537,-0.33937 -0.231106,-1.92363 -0.26284,-1.95571 -0.07767,-0.0785 -0.266687,0.002 -0.317177,-0.0959 -0.0385,-0.0749 0.16691,-0.0227 0.250364,-0.0341 1.216312,0.55362 1.846162,1.30522 2.729202,2.24918 0.0677,0.0233 0.19812,0.14121 0.2032,0.0698 0.006,-0.0787 -0.1577,-0.0607 -0.19906,-0.12787 -0.0875,-0.14205 -0.11093,-0.31471 -0.16972,-0.47084 -0.21992,-0.584 -0.49617,-1.14584 -0.66313,-1.74881 -0.0148,-0.0851 -1.21842,0.12387 -1.20365,0.20898 z" />
    <path
       style="fill:#e9afaf;fill-opacity:1;fill-rule:nonzero;stroke:none;stroke-width:0.264583"
       id="path31247"
       d="m 102.4692,123.5818 c 0.81013,1.24881 2.26883,1.98718 2.90763,3.34396 -0.0326,0.73698 -0.26465,1.4382 -0.69348,2.03698 -0.26143,0.26833 -0.68805,0.26715 -1.03463,0.39208 -0.40374,0.13281 -0.6586,0.46715 -0.97379,0.72618 -0.0718,0.0496 -0.30482,0.15164 -0.30954,0.15379 0.14639,0.18059 0.29278,0.36117 0.43917,0.54175 0.0202,-0.0147 -0.1877,-0.3008 -0.20793,-0.28609 v 0 c 0.0439,0.22993 0.0879,0.45987 0.13186,0.68981 0.28757,-0.036 0.53844,-0.16528 0.76245,-0.34865 0.22735,-0.18523 0.44445,-0.37852 0.73704,-0.45351 0.54592,-0.15505 1.08847,-0.3137 1.4987,-0.73372 0.79264,-0.87947 1.34147,-1.92106 1.04586,-3.13495 -0.0749,-0.25282 -0.12144,-0.51583 -0.2247,-0.75845 -0.58525,-1.37512 -1.89379,-2.35607 -3.1495,-3.06949 -0.0637,-0.0657 -0.9928,0.83461 -0.92914,0.90031 z" />
    <path
       style="fill:#e9afaf;fill-opacity:1;fill-rule:nonzero;stroke:none;stroke-width:0.264583"
       id="path31249"
       d="m 87.781814,127.6678 c -0.134585,1.34298 -0.382733,2.95133 0.370962,4.16968 0.11567,0.18697 0.285887,0.33411 0.428831,0.50116 0.996024,0.65421 2.055564,0.18364 2.306998,-0.92835 -0.05796,-0.2945 0.0038,-0.16732 -0.173805,-0.38695 -0.0043,-0.0209 -0.299911,0.0406 -0.295564,0.0615 v 0 c -0.136599,-0.0263 -0.06461,-0.0308 -0.213637,0.0343 -0.169575,0.14422 -0.298009,0.34327 -0.490601,0.45892 -0.05132,0.0308 -0.175925,7.9e-4 -0.169133,0.0604 0.0076,0.0671 0.135911,0.0356 0.185344,0.0816 0.02601,0.0242 -0.07085,-0.005 -0.106273,-0.008 -0.560869,-1.04772 -0.03149,-2.9384 -0.554053,-4.09834 -0.0038,-0.0911 -1.292895,-0.037 -1.289069,0.0541 z" />
    <path
       style="fill:#e9afaf;fill-opacity:1;fill-rule:nonzero;stroke:none;stroke-width:0.264583"
       id="path31253"
       d="m 93.438108,141.81589 c 0.996543,0.19958 2.005455,0.19918 2.988207,-0.0381 0.27876,-0.3821 0.189111,-0.22813 -0.06677,-1.27948 -0.01445,-0.0593 -0.121647,-0.0126 -0.182703,-0.0131 -0.05773,-5.3e-4 -0.182475,-0.0468 -0.172899,0.0101 0.02574,0.15304 0.357407,-0.0837 0.07783,0.0902 -0.04809,0.0373 -0.02989,0.13715 -0.08548,0.16335 -0.01714,0.008 -0.921242,0.0473 -0.985806,0.054 -0.559125,0.0555 -0.28181,0.074 -0.831823,-0.0572 -0.02241,-0.0114 -0.184018,0.30544 -0.16161,0.31687 v 0 c 0.566994,0.16844 0.295457,0.0648 0.815959,0.30732 0.267734,0.0608 0.515149,0.10929 0.789681,0.11203 0.02638,2.6e-4 0.06218,-0.0233 0.07912,-0.003 0.02701,0.0323 0.0149,0.0829 0.02233,0.1243 0.01693,0.0195 0.03386,0.0391 0.05079,0.0586 0.488312,0.38258 2.324309,-0.073 1.061522,-1.23319 -1.182137,-0.42281 -2.564175,-0.25514 -3.780248,-0.10003 -0.105172,0.027 0.276723,1.51439 0.381894,1.48738 z" />
    <path
       style="fill:#e9afaf;fill-opacity:1;fill-rule:nonzero;stroke:none;stroke-width:0.264583"
       id="path31255"
       d="m 93.278877,141.03645 c 1.134763,0.68603 2.37423,1.22274 3.675951,1.48926 0.696622,0.24978 1.549892,-0.4705 1.019051,-1.14054 -0.03354,-0.0392 -0.09142,-0.16836 -0.100613,-0.1176 -0.274691,1.51664 0.356383,0.66525 0.649621,0.1246 0.110953,-0.20457 0.232259,-0.57913 0.309742,-0.80134 0.23753,-0.6854 0.60429,-1.23935 1.233811,-1.60221 0.37283,-0.19625 0.78492,-0.29232 1.18216,-0.42485 0.0307,-0.0102 0.11259,-0.007 0.0917,-0.032 -0.16702,-0.19754 -0.37791,-0.35334 -0.56687,-0.53002 -0.71896,0.18152 -1.423586,0.41752 -2.123801,0.66859 -0.81726,0.34546 -1.733822,0.62111 -2.303954,1.33816 -0.313561,0.83934 0.33969,0.83801 0.930457,0.77237 0.570429,-0.0154 1.07654,-0.16629 1.598123,-0.38753 0.0259,-0.0127 -0.15326,-0.37917 -0.179175,-0.3665 v 0 c -0.558917,0.0447 -1.119662,0.058 -1.67658,0.12645 -0.406488,0.0945 -0.122563,0.009 -0.08974,0.047 0.01095,0.0127 -0.03899,0.0147 -0.03934,0.0315 -0.0011,0.048 0.0321,0.0916 0.0357,0.13943 0.0037,0.0496 -0.02299,0.0996 -0.01405,0.14846 0.0024,0.0133 0.027,-0.003 0.0405,-0.004 0.723493,-0.37993 1.494729,-0.66318 2.238137,-1.00051 0.715301,-0.31335 1.473333,-0.55052 2.131313,-0.97798 -0.0739,-0.26392 -0.0929,-0.54986 -0.22179,-0.79177 -0.10087,-0.18938 -1.567671,0.32703 -1.727685,0.48455 -0.723321,0.52712 -1.28415,1.1528 -1.612789,2.00015 -0.279628,0.59755 -0.402857,1.17182 -0.741408,1.73143 -0.02003,0.0331 -0.04822,-0.0605 -0.07233,-0.0907 0.08669,0.56432 1.250762,-0.41785 0.684559,-0.49124 -1.167968,-0.62179 -2.406896,-1.14309 -3.7192,-1.35877 -0.0718,-0.0446 -0.703294,0.97079 -0.631492,1.01544 z" />
    <path
       style="fill:#e9afaf;fill-opacity:1;fill-rule:nonzero;stroke:none;stroke-width:0.264583"
       id="path31257"
       d="m 101.73956,139.30478 c 1.43811,1.2756 3.30282,1.91653 5.18866,2.11778 1.47998,0.13275 2.8851,-0.28303 4.31418,-0.58 0.16304,-0.18619 0.54796,1.4e-4 0.73002,-0.1711 0.042,-0.0395 -0.0298,-0.11311 -0.0274,-0.17069 0.002,-0.0501 0.0272,-0.0966 0.0407,-0.14485 0.0134,0.0107 0.16453,-0.1789 0.15112,-0.18959 v 0 c -0.1187,-0.53558 -0.90484,-0.40012 -1.31397,-0.40627 -1.11189,0.0912 -2.22284,0.34721 -3.33871,0.24067 -0.32494,-0.0624 -1.38559,-0.2618 -1.66346,-0.33533 -1.16724,-0.3089 -2.26934,-0.83095 -3.44141,-1.12453 -0.054,-0.0452 -0.69375,0.71867 -0.63973,0.76391 z" />
    <path
       style="fill:#e9afaf;fill-opacity:1;fill-rule:nonzero;stroke:none;stroke-width:0.264583"
       id="path31259"
       d="m 99.911097,139.00248 c 1.512293,0.57406 3.134143,1.1798 4.781173,1.09694 0.27116,-0.0137 0.53641,-0.0844 0.80462,-0.12657 0.0413,0.0176 0.29007,-0.56646 0.24877,-0.58405 v 0 c -0.19064,-0.12577 -0.36766,-0.27512 -0.57192,-0.3773 -1.4821,-0.74137 -3.25051,-0.84504 -4.87285,-0.91538 -0.0641,-0.0276 -0.45388,0.8788 -0.389793,0.90636 z" />
    <path
       style="fill:#e9afaf;fill-opacity:1;fill-rule:nonzero;stroke:none;stroke-width:0.264583"
       id="path31261"
       d="m 92.214606,140.54504 c -1.50237,0.76588 -2.756143,1.91706 -4.097136,2.92235 -0.468776,0.32559 -0.968708,0.59551 -1.506344,0.78708 -0.02916,0.0104 -0.601782,0.13683 -0.551868,0.15244 -0.945836,-0.0571 -0.763511,-0.49637 -1.083099,0.64179 0.653757,0.0462 1.139487,-0.3463 1.705576,-0.60588 0.967795,-0.30236 1.871654,-0.76273 2.816855,-1.12077 0.03168,-0.0171 -0.210961,-0.4652 -0.242642,-0.44804 v 0 c -1.047657,0.23829 -2.141609,0.34595 -3.084941,0.90754 -0.239453,0.14169 -0.434988,0.25302 -0.663861,0.4026 -0.05563,0.0363 -0.107767,0.0779 -0.163319,0.11433 -0.02297,0.0151 -0.09239,0.0217 -0.072,0.0402 0.03224,0.0292 0.115737,0.0532 0.129837,0.0121 0.0137,-0.04 -0.07985,-0.0276 -0.119772,-0.0415 -0.185375,0.22576 -0.400219,0.43025 -0.55612,0.67729 -0.08792,0.13932 0.939858,0.3955 1.011349,0.41492 1.292201,0.11377 2.29966,-0.13449 3.406277,-0.86183 1.413862,-0.92207 2.806833,-1.92116 3.897868,-3.22419 0.05448,-0.0585 -0.772178,-0.82889 -0.826656,-0.77044 z" />
    <path
       style="fill:#e9afaf;fill-opacity:1;fill-rule:nonzero;stroke:none;stroke-width:0.264583"
       id="path31267"
       d="m 92.594143,148.01604 c 1.883958,0.71298 3.924829,0.64902 5.901751,0.52358 1.14373,0.0435 2.118996,-0.33472 3.120236,-0.81602 0.50623,-0.31478 1.05707,-0.46679 1.62558,-0.61784 0.57159,-0.20626 0.95931,-0.62622 1.2672,-1.13046 0.20816,-0.27224 0.23949,-0.61101 0.37371,-0.91242 0.33338,-0.18511 -0.67544,-0.66538 -0.6724,-0.27131 0.0161,0.0163 0.0321,0.0327 0.0482,0.0491 -0.0173,0.0512 0.70718,0.2957 0.72446,0.24448 v 0 c 0.0292,-0.0158 0.0583,-0.0315 0.0875,-0.0473 0.49405,-0.71856 -0.87704,-0.90372 -0.96996,-0.2872 -0.14329,0.27756 -0.36296,0.49942 -0.48536,0.79263 -0.20886,0.36905 -0.61544,0.32867 -0.99151,0.43305 -0.60129,0.21135 -1.22071,0.32921 -1.82652,0.5252 -0.55744,0.20894 -1.221268,0.46211 -1.807685,0.19837 -1.924471,-0.1867 -3.864943,-0.50547 -5.798775,-0.24684 -0.110524,-0.0422 -0.706961,1.52088 -0.596437,1.56305 z" />
    <path
       style="fill:#e9afaf;fill-opacity:1;fill-rule:nonzero;stroke:none;stroke-width:0.264583"
       id="path31277"
       d="m 105.26575,99.880083 c 1.43563,-0.545047 2.53963,-1.661843 3.91949,-2.309985 0.99809,-0.183515 1.52698,-0.07958 2.48496,-0.02916 1.835,0.284017 3.6849,0.290568 5.53716,0.341468 0.93266,0.06287 1.87984,0.09283 2.80905,-0.03924 0.19446,-0.02764 0.38629,-0.0735 0.57581,-0.125055 0.11891,-0.03234 0.39566,-0.01267 0.34751,-0.126106 -0.056,-0.132008 -0.2841,-0.03943 -0.42616,-0.05914 0.47009,0.06643 0.92041,0.284885 1.4102,0.320768 -0.12749,-0.57576 0.34561,-2.312662 -0.0439,-1.089023 -0.0385,0.02842 0.36345,0.573397 0.40198,0.544973 v 0 c 0.16639,0.03843 0.40451,0.257408 0.49916,0.115277 0.98059,-1.472386 0.98188,-1.382348 0.36998,-1.829491 -0.6103,-0.318683 -1.29268,-0.358923 -1.96319,-0.447826 -0.30287,-0.02434 -0.60798,-0.02889 -0.9086,-0.073 -0.3569,-0.05238 -0.67469,-0.290592 -1.05584,-0.237214 -0.93292,-0.109803 -1.87939,-0.07888 -2.81245,0.0042 -1.33486,0.05339 -2.66665,0.207735 -4.00519,0.230521 -1.5543,-0.06006 -3.13401,-0.193516 -4.63973,0.295347 -1.64049,0.590275 -3.21167,1.492403 -4.191,2.981587 -0.10827,0.119554 1.58249,1.650709 1.69075,1.531157 z" />
    <path
       style="fill:#e9afaf;fill-opacity:1;fill-rule:nonzero;stroke:none;stroke-width:0.264583"
       id="path31279"
       d="m 79.756473,102.73181 c -1.487274,-0.52208 -3.3244,-0.49086 -4.839714,-0.10979 -0.597201,0.0557 -0.809154,0.83181 -1.34652,0.92692 -0.861568,0.39963 -1.707184,0.85222 -2.506318,1.3663 -1.091719,0.64004 -2.1253,1.35909 -3.266297,1.91294 -1.273972,0.62957 -2.565747,1.21252 -3.808331,1.90207 -0.78123,0.37928 -1.533184,0.81461 -2.289212,1.24092 -1.042477,0.63679 1.042998,3.08355 1.636263,2.00728 0.141049,-0.0905 -1.139188,-2.08527 -1.280237,-1.99474 v 0 c -0.06128,-0.0679 -0.04219,-0.0752 -0.147518,-0.062 -1.006835,0.1252 0.502282,2.23442 1.27346,2.16415 0.868122,-0.30542 1.743213,-0.59806 2.572126,-1.00263 1.311698,-0.60146 2.545704,-1.34695 3.798083,-2.062 1.11968,-0.69194 2.291051,-1.31689 3.309141,-2.15902 0.817272,-0.56468 1.584153,-1.21058 2.25252,-1.94788 0.03632,-0.0503 0.219517,-0.281 0.253563,-0.38657 0.01773,-0.055 -0.115535,0.0913 -0.09461,0.1451 0.04923,0.12664 0.390203,0.0215 0.389573,0.11991 0.145534,0.0133 0.291068,0.0266 0.436602,0.0399 -0.01876,0.0222 -0.08485,0.0612 -0.05629,0.0665 1.008197,0.18612 2.094457,0.0489 3.087079,-0.13959 0.143377,0.0443 0.770027,-1.98339 0.626647,-2.0277 z" />
    <path
       style="fill:#e9afaf;fill-opacity:1;fill-rule:nonzero;stroke:none;stroke-width:0.264583"
       id="path31309"
       d="m 106.10901,109.76814 c 1.94668,0.48476 4.01984,0.3175 5.93049,-0.24094 0.90598,-0.37611 1.79456,-0.68227 2.7777,-0.72137 0.94213,-0.0223 1.87317,-0.0851 2.75733,-0.42887 0.52598,-0.30178 1.04649,-0.59798 1.60477,-0.83745 0.33976,-0.17803 0.69944,-0.25159 1.07315,-0.30917 0.3605,-0.0547 0.6907,-0.20018 1.02923,-0.32551 0.23904,-0.11466 0.49307,-0.17443 0.74226,-0.25815 0.20713,-0.14745 0.34682,-0.0463 0.56438,-0.0486 -0.12903,-0.002 -0.25824,0.002 -0.3871,-0.005 -0.0178,-0.001 0.0338,-0.0128 0.0515,-0.0136 0.27311,-0.013 0.83858,0.0181 0.794,-0.1036 -0.12624,-0.3446 -0.37733,-0.62958 -0.56599,-0.94437 -0.0118,-0.007 -0.10812,0.16075 -0.0963,0.16756 v 0 c -0.0832,-0.27964 -0.21401,-0.54933 -0.24945,-0.83891 -0.0172,-0.14099 1.57374,-0.0723 -0.0329,-0.10624 -0.37387,0.002 -0.71771,0.11686 -1.06216,0.25348 -0.25463,0.0984 -0.49719,0.22235 -0.75092,0.32313 -0.2457,0.1006 -0.50405,0.13919 -0.76533,0.18398 -0.50824,0.10362 -1.01215,0.23792 -1.4772,0.47391 -0.45803,0.24489 -0.87659,0.57639 -1.36863,0.74347 -0.84077,0.14175 -1.7013,0.0781 -2.54257,0.22663 -0.99752,0.19145 -1.96088,0.51059 -2.96268,0.68091 -1.47924,0.19622 -2.97126,0.2133 -4.43786,0.47392 -0.11698,-0.0443 -0.74277,1.61013 -0.62579,1.65438 z" />
    <path
       style="fill:#e9afaf;fill-opacity:1;fill-rule:nonzero;stroke:none;stroke-width:0.264583"
       id="path31311"
       d="m 80.187918,112.70789 c -1.262459,1.10722 -2.3759,2.3683 -3.663294,3.44902 -0.983853,0.60154 -0.413914,0.37042 -1.230757,0.41484 -0.689086,0.21257 -1.239533,0.68554 -1.828384,1.07979 -0.791462,0.55964 -1.65852,0.99113 -2.511132,1.44657 -0.549489,0.18797 -1.032793,0.74051 -1.627489,0.7987 -0.391183,-0.0249 -0.761539,0.104 -1.139655,0.18353 -0.400497,0.0667 -0.771996,0.23192 -1.155581,0.35217 -0.108956,-0.005 -0.344117,0.0829 -0.534025,0.10827 -0.268462,0.0483 -0.543163,0.0138 -0.813916,0.005 0.114533,0.002 0.229391,-0.004 0.343601,0.005 0.08573,0.007 -0.170807,0.0203 -0.256511,0.0272 -0.864095,0.0698 -0.491911,0.10999 -0.825341,0.0689 -0.1568,0.0279 -0.300379,0.0895 -0.444926,0.15259 -0.117711,0.0758 0.95454,1.74047 1.072248,1.66465 v 0 c 0.05233,-0.003 0.135805,-0.0268 0.197323,-0.0465 0.04356,-0.0184 0.177951,-0.0538 0.130688,-0.0551 -0.206038,-0.006 -0.411104,0.0311 -0.61696,0.0415 -0.01603,7.9e-4 -0.06197,-0.015 -0.04752,-0.008 0.282225,0.13689 0.700476,0.0412 0.96054,0.0785 0.44848,-0.0191 0.897012,-0.0832 1.308346,-0.27342 0.03051,-0.0168 0.491543,-0.26848 0.09262,-0.10767 -0.101277,0.0408 0.421142,-0.11538 0.31705,-0.0824 0.369557,-0.11877 0.744469,-0.22061 1.104429,-0.36856 0.318116,-0.12512 0.638209,-0.17271 0.977953,-0.21209 0.757928,-0.18031 1.493411,-0.42814 2.171189,-0.8222 0.883248,-0.50878 1.738149,-1.0665 2.547136,-1.68753 0.356799,-0.27786 0.712647,-0.59391 1.109157,-0.80294 -0.103738,10e-4 -0.414914,7.9e-4 -0.311211,0.004 0.866262,0.0235 1.632495,-0.11724 2.387841,-0.57568 1.546,-1.00361 2.918087,-2.30483 3.793056,-3.94563 0.06309,-0.10652 -1.443387,-0.99869 -1.506474,-0.89217 z" />
    <path
       style="fill:#e9afaf;fill-opacity:1;fill-rule:nonzero;stroke:none;stroke-width:0.264583"
       id="path31313"
       d="m 78.717337,112.1695 c -1.483262,-0.1975 -2.986722,-0.12674 -4.470558,0.0247 -0.553773,0.11803 -1.047121,0.31681 -1.610633,0.3698 -0.729205,0.0309 -1.42653,0.22009 -2.114248,0.44946 -0.644536,0.22953 -1.252411,0.5407 -1.857587,0.85675 -0.466733,0.2011 -0.956056,0.35288 -1.445368,0.48983 -0.630592,0.16856 -1.247466,0.38317 -1.862048,0.60176 -0.462126,0.16218 -0.869735,0.42104 -1.272434,0.69339 -0.188124,0.10963 -0.356701,0.24823 -0.522377,0.38734 0.02064,-0.0214 0.0413,-0.0427 0.06195,-0.0641 -0.104047,0.0782 1.002223,1.54966 1.106271,1.47144 v 0 c 0.04384,-0.0331 0.08767,-0.0662 0.131511,-0.0993 0.153315,-0.1187 0.328829,-0.20668 0.491879,-0.31109 0.301268,-0.1943 0.613389,-0.36032 0.967957,-0.43699 0.605104,-0.20393 1.214281,-0.39551 1.82041,-0.59674 0.548129,-0.19567 1.104476,-0.37208 1.634752,-0.61353 0.550288,-0.2488 1.07978,-0.5537 1.655267,-0.73896 0.641612,-0.18614 1.304785,-0.25709 1.949604,-0.42987 0.497996,-0.15361 0.845643,-0.27436 1.376177,-0.14707 1.482662,0.10086 2.983423,0.1786 4.45466,-0.0862 0.128736,-0.035 -0.366445,-1.85563 -0.495184,-1.82061 z" />
    <path
       style="fill:#e9afaf;fill-opacity:1;fill-rule:nonzero;stroke:none;stroke-width:0.264583"
       id="path31315"
       d="m 107.79086,108.57052 c 1.72427,-0.45292 3.2849,-1.3474 4.68918,-2.42722 0.43731,-0.3356 0.82104,-0.7271 1.18149,-1.14119 0.27215,-0.38221 0.7888,-0.4171 1.20686,-0.57588 1.03449,-0.42777 2.04984,-0.9122 3.01475,-1.48071 0.33471,-0.16552 0.60022,-0.41986 0.8838,-0.65459 0.30558,-0.17449 0.61503,-0.34276 0.92725,-0.50525 0.25386,-0.11677 0.46429,-0.30985 0.74124,-0.36567 -1.41806,0.9071 -0.9772,-2.838986 -1.02951,-0.65191 -0.0154,0.0123 0.15841,0.23002 0.1738,0.21773 v 0 c 0.1101,0.0402 0.22307,0.0733 0.3303,0.12066 0.13049,0.0576 0.40687,0.33408 0.38161,0.19369 -0.31738,-1.764733 -0.14994,-1.776287 -0.78647,-1.490987 -0.36495,0.1265 -0.67961,0.362457 -1.00174,0.569727 -0.35883,0.24668 -0.75645,0.4459 -1.04222,0.78528 -0.11047,0.11908 -0.61264,0.0406 -0.73169,0.23532 -1.05119,0.44253 -2.06244,0.98373 -3.01043,1.61857 -0.42913,0.3303 -0.81028,0.68874 -1.13704,1.12132 -0.39579,0.28446 -0.84129,0.49391 -1.25978,0.74089 -1.45736,0.81394 -2.95435,1.57873 -4.32052,2.53953 -0.0814,0.0558 0.70776,1.20648 0.78912,1.15069 z" />
    <path
       style="fill:#e9afaf;fill-opacity:1;fill-rule:nonzero;stroke:none;stroke-width:0.264583"
       id="path31317"
       d="m 116.33607,101.20645 c -1.59392,0.11863 -3.18364,0.57302 -4.60069,1.31396 -0.62988,0.25741 -0.85503,0.88888 -1.30077,1.33164 -0.45225,0.44206 -0.95791,0.8228 -1.43971,1.23105 -0.42713,0.34257 -0.8249,0.71294 -1.20216,1.10905 -0.30432,0.34882 -0.56357,0.73223 -0.83593,1.10511 -0.0962,0.19276 -0.25753,0.26179 -0.41112,0.38579 -0.18419,0.11296 -0.36649,0.27263 -0.48761,0.45317 0.22189,0.45442 0.27049,1.04771 0.66566,1.36326 0.57389,0.45826 2.30933,-1.05243 2.6857,-1.38151 0.81337,-0.6967 1.43146,-1.57427 2.15097,-2.3566 0.43279,-0.42965 0.97944,-0.70476 1.50503,-1.00059 0.62568,-0.30904 1.14294,-0.75746 1.64825,-1.22847 0.3518,-0.27487 0.69156,-0.5611 1.00827,-0.87643 0.2973,-0.27906 0.68197,-0.45821 1.07134,-0.56779 0.37758,-0.0764 0.7551,-0.29835 1.14606,-0.2182 -0.0847,0.004 -0.1742,-0.0154 -0.25415,0.013 -0.10671,0.0379 0.22534,0.0225 0.33793,0.0344 0.37537,0.0398 0.74825,0.0258 1.12331,-0.0153 0.35682,-0.0416 0.70067,-0.092 1.05974,-0.0739 -0.0746,0.01 -0.28453,-0.0157 -0.22381,0.0287 0.1383,0.10109 1.50313,0.066 1.74738,0.0518 0.37815,-0.0622 0.76518,0.0102 1.12071,-0.14754 0.15774,-0.0614 0.31265,5.3e-4 0.51183,-0.05 0.0372,-0.0187 0.11399,-0.0147 0.1115,-0.0562 -0.0325,-0.54212 -0.10215,-1.08356 -0.21184,-1.61546 -0.008,-0.03948 -0.0807,-5.3e-4 -0.12092,0.002 -0.0262,0.002 -0.0709,-0.015 -0.0781,0.0103 -0.15166,0.53198 -0.32545,1.06428 -0.38501,1.61424 -0.007,0.0693 0.13865,0.0137 0.20798,0.0205 -0.21785,-0.26398 0.78228,0.15636 0.84226,-0.12085 0.0994,-0.45965 0.11524,-0.93584 0.11536,-1.40612 0,-0.002 -0.1668,-0.1131 -0.17296,-0.10579 -0.34994,0.41562 -0.66689,0.85793 -1.00033,1.2869 0.0454,-0.001 0.0909,-0.002 0.13629,-0.004 0.0685,0.073 1.1011,-0.89532 1.03263,-0.96834 v 0 c -0.0147,-0.0492 -0.0293,-0.0984 -0.044,-0.14767 -1.46896,1.25575 -1.46493,1.79922 -0.87221,-0.0976 0.0479,-0.153255 0.60875,0.0138 0.47761,-0.0628 -0.69174,-0.005 -0.13999,-0.0357 -0.8697,1.56472 -0.0183,0.0401 0.11856,0.0898 0.12382,0.0461 0.20999,-1.743073 -0.22813,-1.15362 0.12339,-1.61485 -0.2613,0.008 -0.49675,0.0649 -0.72491,0.19622 -0.0179,0.0104 0.0379,-0.0167 0.0569,-0.025 0.28007,-0.15072 0.79114,-0.0535 0.11414,-0.14023 -0.83666,-0.0792 -1.67267,-0.0186 -2.51029,0.0179 -0.37943,0.0353 -0.7552,0.1039 -1.13362,0.14938 -0.40866,0.0311 0.0197,-0.007 0.1068,0.0188 0.0571,0.0169 -0.11783,0.0194 -0.17733,0.0228 -0.33525,0.0193 -0.67678,-0.0269 -1.01074,0.0125 -0.54873,0.0731 -1.08606,0.22135 -1.57837,0.47981 -0.47355,0.25342 -0.90983,0.55222 -1.31123,0.90999 -0.33156,0.25641 -0.66437,0.51195 -1.00419,0.75692 -0.53458,0.33483 -1.08122,0.6494 -1.62516,0.96869 -0.64316,0.36215 -1.28688,0.73529 -1.84457,1.22361 -0.77028,0.70386 -1.56816,1.37741 -2.30758,2.11496 -0.31963,0.29037 -0.44676,0.40984 -0.76168,0.68203 -0.0732,0.0632 -0.14625,0.12667 -0.22216,0.18659 -0.0297,0.0234 -0.13173,0.0576 -0.0943,0.0632 1.00234,0.15157 0.34551,-0.59968 0.8421,1.34928 -0.0697,0.11873 0.16898,-0.15498 0.21194,-0.15349 0.26517,-0.19178 0.48463,-0.42753 0.67888,-0.69042 0.25017,-0.33555 0.52031,-0.65403 0.79234,-0.97199 0.29583,-0.36258 0.64755,-0.64798 1.02863,-0.92091 0.60787,-0.46261 1.17998,-0.97456 1.58795,-1.62901 0.27096,-0.50634 0.22428,-0.51619 0.81683,-0.69948 1.414,-0.45133 2.8636,-0.8152 4.2244,-1.41491 0.096,-0.0422 -0.50074,-1.39931 -0.5967,-1.35712 z" />
    <path
       style="fill:#e9afaf;fill-opacity:1;fill-rule:nonzero;stroke:none;stroke-width:0.264583"
       id="path31319"
       d="m 80.197864,111.74779 c -1.38444,-0.39654 -2.847475,-0.52672 -4.283525,-0.44154 -0.525873,0.0117 -1.040014,0.14809 -1.563796,0.1621 -0.545372,-0.0384 -0.09227,-0.0382 -0.924446,-0.0568 -0.749549,-0.0765 -1.46172,0.0401 -2.174465,0.25147 -0.570127,0.18385 -1.086578,0.48704 -1.59567,0.79552 -0.417891,0.20784 -0.855134,0.36975 -1.283618,0.55277 -0.298847,0.16925 -0.63663,0.23473 -0.954858,0.35319 -0.422024,0.20986 -0.810284,0.4856 -1.204915,0.74367 -0.33809,0.21389 -0.657807,0.45379 -1.005951,0.65146 -0.372555,0.19255 -0.758473,0.361 -1.123971,0.56932 -0.59127,0.30046 -1.113835,0.69861 -1.637946,1.10035 -0.280842,0.23248 -0.596439,0.402 -0.904322,0.58748 -0.179951,0.15537 -0.412538,0.17603 -0.619485,0.26889 -0.05011,0.0152 -0.394602,0.27248 -0.28802,0.353 0.0421,0.0318 0.06767,-0.0848 0.08123,-0.13583 0.01003,-0.0377 -0.06874,-0.0423 -0.107553,-0.0459 1.004322,0.0723 -0.343334,-0.0126 -0.653515,0.10419 -0.04683,0.0273 -0.145429,0.028 -0.140481,0.0819 0.154919,1.68961 0.01471,1.7547 1.387367,1.62573 0.217831,-0.0205 0.593772,-0.1839 0.789207,-0.2601 1.293103,-0.60775 2.620385,-1.13493 3.924509,-1.71668 1.204701,-0.60697 2.697898,-0.9985 3.479003,-2.18101 0.154096,-0.53394 0.186301,-0.37009 0.04527,-0.88574 -0.0503,-0.18392 -0.07017,-0.1323 0.104119,-0.252 0.746585,-0.38427 1.522667,-0.70253 2.346174,-0.87104 0.641236,-0.13426 1.274477,-0.0221 1.919272,0.0565 0.709107,0.10122 1.413497,0.0433 2.115457,-0.07 -0.03838,-0.0119 0.542555,-0.0666 0.497062,-0.0591 -0.08741,0.0143 -0.179948,-0.006 -0.265083,0.0184 -0.04573,0.0131 0.09448,0.0113 0.141721,0.017 0.729131,0.15074 1.45188,0.11213 2.173023,-0.0438 -0.03422,-0.002 0.739437,-0.16595 0.705671,-0.16475 -0.345702,0.0123 -0.458388,0.0361 -0.304165,0.006 0.149928,0.0228 0.286903,0.0892 0.435625,0.12109 0.219046,0.13997 0.604809,-0.0641 0.858822,-0.003 0.02574,0.006 0.102992,0.0111 0.07725,0.0167 -0.101293,0.0219 -0.210471,0.002 -0.309107,0.0335 -0.04727,0.0152 0.09842,0.0136 0.147838,0.0186 0.117962,0.0117 0.234694,0.0186 0.352777,0.009 0.685477,-0.0386 0.844532,-2.28358 0.181422,-1.79394 0.160973,0.58286 -0.168029,2.54041 -0.311338,1.70622 -0.271412,-1.57989 0.381075,-1.82677 -0.279474,-1.51408 -0.179951,0.11501 -0.08827,0.0459 -0.269409,0.21462 -0.09551,0.0911 1.193213,1.44189 1.288727,1.35076 v 0 c -0.09307,0.10259 -0.124661,0.0825 -0.0457,0.10256 0.761193,-0.10192 0.732931,-1.53219 0.09889,-1.83851 -0.08824,-0.0426 -0.24579,-0.15558 -0.286388,-0.0664 -0.274616,0.60334 -0.465465,1.2414 -0.698195,1.8621 0.600824,0.49927 1.602065,-1.7513 0.798647,-1.78944 -0.399113,-0.0424 -0.815551,0.0648 -1.210683,0.0693 -0.183936,0.033 -0.758079,0.0485 0.04373,0.042 -0.0435,0.12924 -0.250984,-0.0182 -0.346858,-0.0112 -0.527185,-0.0979 -1.067194,0.0241 -1.589302,0.10214 -0.668586,0.10635 -0.616942,0.13525 -1.08019,0.17489 -0.447443,-0.002 -0.888566,0.0233 -1.332929,0.0703 -0.647057,0.0838 -0.508693,0.10454 -1.076804,0.0403 -1.035473,-0.13124 -2.081553,-0.31158 -3.116572,-0.0547 -1.081241,0.32591 -2.203384,0.70594 -2.877597,1.67406 -0.05401,0.12835 -0.124818,0.25087 -0.16205,0.38506 -0.0064,0.023 -0.08243,0.89588 0.01947,0.82139 0.04985,-0.0364 -0.01606,-0.1247 -0.0038,-0.18522 0.01749,-0.0863 0.06103,-0.1653 0.09154,-0.24795 -0.315314,-0.0483 -0.797221,0.14748 -1.072951,0.2344 -0.887436,0.27977 -1.757709,0.6129 -2.611358,0.98265 -1.258586,0.58307 -2.451886,1.27674 -3.649549,1.97446 -0.114908,0.0477 -0.471564,0.0859 -0.352639,0.1225 0.119049,0.0367 0.24874,0.0173 0.372078,0.0347 0.04845,0.007 -0.14011,-0.0514 -0.146775,-0.003 -0.233278,1.69698 0.367115,1.24135 -0.147637,1.6041 -0.01037,0.0684 -0.790777,0.023 -0.218999,0.0834 0.220393,0.0233 0.442349,0.0279 0.663525,0.0419 0.210659,-0.0121 0.337383,-5.3e-4 0.538501,-0.0976 0.04027,-0.0194 0.518732,-0.37803 0.418063,-0.10407 0.302599,-0.11176 0.55771,-0.29295 0.813729,-0.4852 0.342344,-0.2135 0.655121,-0.47153 0.997249,-0.68583 0.490865,-0.33936 0.967263,-0.69971 1.464683,-1.02971 0.359849,-0.21096 0.722865,-0.41612 1.083892,-0.62492 0.386863,-0.22844 0.770675,-0.46571 1.135123,-0.72842 0.248232,-0.19177 0.493937,-0.39662 0.758886,-0.56162 0.375031,-0.10347 0.743474,-0.23249 1.094777,-0.40059 0.488318,-0.22246 1.007255,-0.38659 1.44952,-0.6997 0.377346,-0.24303 0.764124,-0.47647 1.204653,-0.58542 0.664559,-0.15867 0.785468,-0.12717 0.881758,-0.12146 0.661207,0.0198 1.329772,0.0498 1.985209,-0.0559 0.152106,-0.0278 0.312227,-0.0807 0.465854,-0.0963 0.02426,-0.002 0.09696,0.004 0.07281,0.007 -0.11153,0.0156 -0.241885,-0.0312 -0.336542,0.0298 -0.05999,0.0387 0.138218,0.0356 0.207328,0.0535 1.382056,0.32391 2.810364,0.44804 4.228092,0.37816 0.11971,0.0445 0.748805,-1.64848 0.629094,-1.69296 z" />
    <path
       style="fill:#e9afaf;fill-opacity:1;fill-rule:nonzero;stroke:none;stroke-width:0.264583"
       id="path31321"
       d="m 70.107023,114.22933 c -1.466633,-0.0885 -2.916327,0.2961 -4.059033,1.22455 -0.818248,0.99462 -0.668499,2.21613 -0.288761,3.35793 0.846883,1.77468 2.294876,1.73273 4.032911,1.67838 0.957337,-0.1135 1.8884,-0.3706 2.819307,-0.61196 0.646655,-0.17311 1.097286,-0.68295 1.569194,-1.12415 0.68939,-0.65493 1.25975,-1.39536 1.625737,-2.27301 0.264531,-0.81251 0.08116,-1.52664 -0.461004,-2.15897 -0.622179,-0.55134 -1.409211,-0.71592 -2.206742,-0.83096 -0.828135,-0.0812 -1.651074,0.0305 -2.475415,0.0844 -0.528325,0.012 -0.962239,-0.10776 -1.870043,0.034 -1.191623,0.26725 -1.97897,1.14409 -2.633554,2.11416 -0.455197,0.78565 -0.50791,1.58776 -0.188039,2.42349 0.215743,0.82195 0.395713,1.21826 1.090369,1.77291 1.353322,0.62469 2.891808,0.46734 4.333144,0.31083 1.321962,-0.18969 2.257253,-0.88947 2.995586,-1.96696 0.428726,-0.74282 0.791073,-1.52306 1.08458,-2.3286 0.198091,-0.55793 0.330558,-1.12624 0.360183,-1.71797 -0.02106,-1.22022 -1.134801,-1.5372 -2.143223,-1.68914 -1.397759,-0.0735 -2.810804,-0.0283 -4.154744,0.38132 -1.235091,0.53265 -2.226038,1.47212 -3.11553,2.45862 -0.911193,1.06459 -1.15276,2.05352 -0.880805,3.41166 0.821052,2.00883 2.926561,1.84531 4.764013,1.63129 1.428686,-0.21922 2.422324,-0.71758 3.106608,-2.00032 0.366638,-0.97274 0.358828,-2.00656 0.230103,-3.02287 -0.499481,-1.68619 -2.386965,-0.69726 -3.411083,-0.2037 -0.633529,0.37465 -2.520164,1.8836 -2.219198,2.80519 0.09713,0.29743 0.309134,0.54409 0.463701,0.81614 0.371367,0.0258 0.744151,0.11885 1.114097,0.0774 0.2584,-0.029 0.493099,-0.16937 0.726649,-0.28367 0.909682,-0.44518 1.634895,-1.09181 2.129348,-1.969 0.422934,-1.896 -1.941407,-1.55103 -2.9953,-1.10979 -0.239477,0.10026 -0.453276,0.25327 -0.679916,0.37991 -0.984573,0.56995 -0.904269,2.10701 0.429353,2.1345 0.687062,0.0142 1.422069,-0.29524 2.057413,-0.51685 0.474239,-0.23225 2.202111,-0.96309 1.655508,-1.85384 -0.140221,-0.22851 -0.392678,-0.40383 -0.652375,-0.47043 -0.367443,-0.0942 -0.758634,0.008 -1.137952,0.0112 -0.677624,0.16476 -1.700392,0.69336 -1.56198,1.58853 0.02985,0.19306 0.22225,0.32133 0.333375,0.48199 0.0035,0.0228 0.325747,-0.0268 0.322238,-0.0496 v 0 c 0.576329,0.008 1.112076,-0.32062 1.561523,-0.65671 0.03438,-0.13533 0.135224,-0.54796 0.180989,-0.64845 0.02912,-0.0639 0.178593,-0.21694 0.13308,-0.16343 -0.357397,0.42026 -0.820121,0.67708 -1.318027,0.91435 -0.252916,0.0779 -0.499841,0.17898 -0.758749,0.23382 -0.481269,0.10194 -0.795252,-0.14112 -0.672621,0.64171 0.02963,0.18914 0.943047,-0.42302 0.545928,-0.17839 0.127863,-0.0585 1.532612,-0.62396 1.544868,-0.64142 0.113567,-0.16187 -1.081762,-0.42349 -0.289761,-0.81253 -0.349695,0.39127 -0.699318,0.75086 -1.11528,1.07556 -0.170137,0.13281 -0.340365,0.26722 -0.525002,0.379 -0.137414,0.0832 -0.376446,0.0545 -0.436898,0.20334 -0.04274,0.10521 0.17989,0.13863 0.269835,0.20795 0.03409,0.2011 0.0241,0.4149 0.102269,0.6033 0.02982,0.0718 0.270264,-0.17609 0.42368,-0.31323 0.54033,-0.48298 1.079699,-0.96897 1.666515,-1.39607 1.865408,-1.53063 -0.567277,0.42787 0.992365,-0.72782 0.0814,-0.0603 0.266068,-0.12277 0.217893,-0.2119 -0.08372,-0.15488 -0.328303,-0.13866 -0.466411,-0.24786 -0.06282,-0.0497 -0.06294,-0.35716 -0.04811,-0.0181 0.0016,0.7808 0.04392,1.58801 -0.124859,2.35192 -0.438751,0.74171 -1.676197,0.6395 -2.398795,0.74289 -0.224864,0.008 -1.820619,0.16128 -2.010553,0.023 -0.05343,-0.0389 -0.07649,-0.10781 -0.114739,-0.16171 -0.175567,-0.77798 -0.06838,-1.26149 0.526267,-1.8208 0.723328,-0.7309 1.446107,-1.51837 2.395913,-1.95146 0.851977,-0.26924 1.75092,-0.22498 2.62513,-0.32079 0.02766,-0.001 0.766998,-0.0282 0.862489,-0.0458 0.05775,-0.0106 0.122668,-0.0273 0.1608,-0.0719 0.03766,-0.0441 0.0384,-0.22044 0.05527,-0.16496 0.01638,0.0539 0.01037,0.11209 0.01556,0.16813 0.02743,0.40467 0.09182,0.82664 -0.143357,1.18448 -0.388479,0.67524 -0.737425,1.37083 -1.126095,2.0448 -0.611852,0.83433 -1.163611,0.84434 -2.165707,0.90731 -0.848784,0.0381 -1.690153,0.10697 -2.540006,0.10221 -0.0059,0.002 -0.161573,0.0727 -0.197265,0.0403 -0.24452,-0.22214 -0.116951,-0.71054 -0.328639,-0.96075 -0.185108,-0.35942 -0.02127,-0.47865 0.204817,-0.84359 0.388029,-0.55975 0.859713,-1.13741 1.525447,-1.36533 0.179472,-0.0175 1.095748,-0.088 1.73428,-0.10053 0.603446,-0.0353 1.07936,-0.0587 1.414367,-0.0607 0.515395,-0.004 1.030124,0.009 1.516854,0.20073 0.295098,0.0356 0.229137,0.31719 0.145701,0.53043 -0.369144,0.68901 -1.012352,1.19284 -1.446628,1.84012 -0.281625,0.34056 -0.40326,0.51856 -0.850109,0.47775 -0.941988,0.0368 -1.879166,0.13587 -2.818342,0.21341 -0.200049,0.14474 -0.03358,0.0409 -0.557218,0.0989 -0.393845,0.0436 -0.659542,0.149 -0.85871,-0.26378 -0.08034,-0.23632 -0.464989,-1.19871 -0.343884,-1.3835 1.045763,-0.46626 2.220372,-0.52839 3.299346,-0.89347 0.124248,-0.0406 -0.449898,-1.79774 -0.574146,-1.75715 z" />
    <path
       style="fill:#e9afaf;fill-opacity:1;fill-rule:nonzero;stroke:none;stroke-width:0.264583"
       id="path31323"
       d="m 70.578135,115.00818 c -0.759619,-0.01 -2.054056,0.58854 -1.466538,1.59718 0.278585,0.47827 0.799439,0.42306 1.241063,0.47085 0.03394,0.0162 0.263236,-0.46379 0.229296,-0.48 v 0 c -0.199726,-0.0858 -0.475917,-0.34304 -0.62534,-0.18514 -0.05484,0.058 -0.09333,0.16848 -0.04842,0.23443 0.08662,0.12719 1.036605,-0.17158 1.155549,-0.22809 0.09965,-0.0343 -0.385959,-1.44357 -0.485606,-1.40923 z" />
    <path
       style="fill:#e9afaf;fill-opacity:1;fill-rule:nonzero;stroke:none;stroke-width:0.264583"
       id="path31325"
       d="m 71.550608,115.80074 c -0.624308,0.015 -0.881747,-0.0389 -1.478772,0.23362 -0.500702,0.22855 -1.494821,0.90983 -1.168458,1.63607 0.107141,0.23841 0.394393,0.34312 0.59159,0.51469 0.02349,0.0274 0.411596,-0.30494 0.388093,-0.33238 v 0 c -0.07739,-0.0912 0.232019,-0.1907 0.350703,-0.23379 0.57935,-0.21036 1.221645,-0.23993 1.776942,-0.52821 0.09122,-0.0325 -0.368882,-1.32253 -0.460098,-1.29 z" />
    <path
       style="fill:#e9afaf;fill-opacity:1;fill-rule:nonzero;stroke:none;stroke-width:0.264583"
       id="path31327"
       d="m 71.538033,116.10682 c -1.32325,-0.50933 -3.862372,-0.88081 -4.707588,0.63027 -0.164317,0.29377 -0.167244,0.6521 -0.250863,0.97815 0.167479,0.33416 0.269685,0.71001 0.502436,1.00248 0.973244,1.22297 3.045066,1.57965 4.48849,1.33763 0.331385,-0.0556 0.627348,-0.24093 0.94102,-0.36139 0.22452,-0.2053 0.49232,-0.37154 0.67356,-0.61589 0.521584,-0.70322 0.583218,-1.70405 0.127511,-2.45675 -0.417132,-0.68899 -0.830827,-0.79592 -1.509186,-1.17223 -1.50531,-0.39031 -3.340934,-0.10956 -4.021447,1.49111 -0.136242,0.32046 -0.247317,0.68158 -0.196303,1.02605 0.0582,0.39299 0.338627,0.7188 0.507942,1.0782 0.983229,1.01808 1.820437,1.0837 3.14737,1.14296 0.05473,0.0211 0.353385,-0.75283 0.298659,-0.77395 v 0 c -0.742022,-0.19964 -1.456185,-0.41484 -2.064311,-0.91236 -0.375529,-0.74349 0.03248,-0.92253 0.592365,-1.30269 0.06394,-0.0434 0.09617,-0.13506 0.170116,-0.15756 0.23513,-0.0715 0.48545,-0.0772 0.728176,-0.11576 0.22506,0.006 0.453567,-0.0221 0.675182,0.0176 1.008957,0.18063 1.24288,1.28981 0.32743,1.78914 -0.239281,0.0581 -0.474062,0.13967 -0.717841,0.17438 -1.082262,0.15411 -2.143469,-0.42753 -3.034829,-0.96102 -0.510085,-0.17378 0.987396,-0.24856 1.929775,-0.31195 0.256109,-0.0172 0.511863,-0.0393 0.767795,-0.059 0.103756,0.0442 0.728297,-1.42319 0.624541,-1.46736 z" />
    <path
       style="fill:#e9afaf;fill-opacity:1;fill-rule:nonzero;stroke:none;stroke-width:0.264583"
       id="path31329"
       d="m 72.126366,116.2894 c -0.593011,0.39544 -1.798111,1.10129 -1.452976,2.01708 0.06872,0.18235 0.193138,0.37987 0.375772,0.44784 0.214051,0.0797 0.455375,-0.0359 0.683062,-0.0538 0.436528,-0.17858 2.215771,-0.83246 1.873845,-1.59652 -0.114361,-0.25555 -0.374065,-0.41666 -0.561099,-0.62499 -0.933088,-0.53227 -1.820545,1.2533 -0.760082,1.58119 0.165997,0.0513 0.347406,0.008 0.52111,0.0121 0.769464,-0.12976 1.164746,-0.57512 1.386404,-1.29455 0.08968,-0.41584 0.556884,-1.43694 -0.06825,-1.71358 -0.22633,-0.10016 -0.48945,-0.0739 -0.734176,-0.11086 -0.410298,0.11757 -0.756354,0.30643 -0.798531,0.75562 -0.0295,0.0714 0.980003,0.48856 1.009501,0.41717 v 0 c 0.07988,0.14693 0.177729,0.0289 0.212969,-0.074 -0.161481,-0.0486 -0.341297,-0.0567 -0.484442,-0.14583 -0.06186,-0.0385 -0.06711,-0.13225 -0.07781,-0.20434 -0.03937,-0.26541 0.38931,1.20957 0.06674,0.78936 -0.192056,0.35203 -0.410226,0.7366 -0.757833,0.95141 0.04715,0.0995 0.02302,0.28334 0.09452,0.36209 0.122036,0.13442 0.862719,-0.003 -0.05264,-0.0217 -0.08555,-0.19914 -0.210342,-0.38569 -0.256654,-0.59743 -0.01355,-0.062 0.03539,-0.20181 0.0892,-0.16818 0.168997,0.10561 -0.776137,1.12179 -0.947809,1.19847 -0.387361,1.143 1.731547,-0.77238 1.716542,-0.91747 0.07136,-0.0762 -1.006017,-1.08532 -1.077372,-1.00914 z" />
    <path
       style="fill:#e9afaf;fill-opacity:1;fill-rule:nonzero;stroke:none;stroke-width:0.264583"
       id="path31331"
       d="m 113.8168,103.01582 c -0.40033,1.31796 -0.49511,3.30952 0.77107,4.25107 0.27303,0.20302 0.62319,0.2733 0.93479,0.40996 0.45201,0.004 0.90988,0.085 1.35605,0.0123 0.31638,-0.0515 0.61169,-0.20894 0.88466,-0.37697 1.28623,-0.79175 1.58246,-1.93833 1.71106,-3.33209 -0.0481,-0.25816 -0.0464,-0.53081 -0.14437,-0.77447 -0.56504,-1.40598 -2.36303,-1.5474 -3.56424,-0.91375 -0.35868,0.18921 -0.64021,0.49794 -0.96031,0.7469 -0.25738,0.3457 -0.55917,0.6624 -0.77216,1.0371 -0.75907,1.33542 -0.95394,3.36891 0.6562,4.2179 0.36375,0.1918 0.80218,0.18145 1.20326,0.27217 0.52005,-0.0742 1.06107,-0.0587 1.56015,-0.22266 1.56569,-0.51441 2.61871,-2.28544 2.72526,-3.85629 0.023,-0.33893 -0.0593,-0.67682 -0.089,-1.01523 -0.13331,-0.27876 -0.20357,-0.59768 -0.39993,-0.83626 -1.03252,-1.25456 -2.50459,-0.94806 -3.567,0.0719 -0.77898,0.74784 -0.76442,1.07787 -1.09512,2.05048 0.0654,0.38563 0.0535,0.79276 0.19626,1.1569 0.55751,1.42161 2.19573,1.85367 3.50312,1.22412 0.25898,-0.12471 0.4367,-0.37386 0.65505,-0.56079 0.32858,-0.5031 0.59672,-0.74939 0.59904,-1.38737 0.004,-1.10682 -0.91408,-1.61535 -1.96931,-1.35985 -0.2611,0.0632 -0.39493,0.36429 -0.5924,0.54644 -0.074,0.24669 -0.22169,0.48253 -0.22206,0.74009 -0.001,0.93619 1.10033,2.03751 2.0843,1.73731 0.27335,-0.0834 0.4102,-0.39804 0.6153,-0.59706 0.0519,-0.30016 0.1683,-0.59613 0.15568,-0.90048 -0.0461,-1.11089 -1.10779,-2.563 -2.29459,-2.63953 -0.50516,-0.0326 -1.0045,0.12641 -1.50676,0.18961 -0.2295,0.2473 -0.51718,0.45124 -0.6885,0.74189 -0.53676,0.91066 -0.30118,2.10248 0.45397,2.80693 0.13014,0.12141 0.30291,0.18693 0.45436,0.28039 0.29471,-0.043 0.61603,7.9e-4 0.88412,-0.12898 0.9014,-0.43617 0.70548,-1.96554 0.15937,-2.57153 -0.17304,-0.19201 -0.42444,-0.29509 -0.63665,-0.44264 -0.47818,-0.006 -0.97735,-0.15867 -1.43454,-0.0184 -0.4907,0.15052 -0.96623,1.05728 -0.86436,1.54418 0.0682,0.32599 0.30976,0.60731 0.55919,0.828 0.313,0.27693 1.27166,0.45743 1.62822,0.54463 0.25131,-0.0891 0.53921,-0.1091 0.75394,-0.26715 0.87704,-0.64552 0.73366,-1.77692 0.20134,-2.5817 -0.49315,-0.74558 -0.75759,-0.75632 -1.50662,-1.12096 -0.5015,0.009 -1.03693,-0.15496 -1.5045,0.0266 -0.83412,0.32386 -1.22439,1.90891 -0.9549,2.67157 0.095,0.26881 0.3411,0.45693 0.51165,0.6854 0.0156,0.0703 1.01035,-0.15009 0.99476,-0.22043 v 0 c 0.18708,-0.56902 0.18043,-0.69021 0.16143,-1.25769 -7.9e-4,-0.0216 -0.0197,0.0385 -0.0295,0.0577 -0.12544,-0.0306 -0.25087,-0.0613 -0.37631,-0.0919 0.34927,0.0852 1.92993,0.28254 1.75399,0.93201 -0.0334,0.12314 -0.15347,0.20385 -0.23019,0.30577 -0.17018,0.12424 -0.40172,0.44657 -0.52315,-0.009 -0.017,-0.0637 0.0783,-0.10615 0.11654,-0.15988 0.17727,-0.24909 0.41197,-0.008 -0.41584,-0.31587 0.9255,-0.0748 0.47286,0.59105 1.31499,0.71983 -0.0284,0.0536 -0.14745,0.32873 -0.12864,-0.12238 0.0123,-0.29639 0.2127,-0.65487 0.33675,-0.91576 -0.16503,-0.0293 -0.35111,-0.002 -0.49509,-0.088 -0.0816,-0.0486 0.18988,-0.0604 0.28242,-0.0388 0.50453,0.11772 0.80039,0.51655 1.21222,0.77361 0.0685,0.0427 0.15396,0.0487 0.23095,0.073 0.26144,0.001 0.39475,-0.0417 0.60487,0.22681 0.0734,0.0938 -0.4744,-0.10455 -0.22059,-0.28353 -0.216,0.0405 -1.04003,-0.0603 -0.7665,-0.44539 0.0698,-0.0983 0.22286,0.16123 0.22694,0.28175 0.005,0.1349 -0.0532,0.26464 -0.0798,0.39696 -0.0745,0.11936 -0.1614,0.23182 -0.2235,0.35807 -0.0327,0.0665 0.007,0.17949 -0.0581,0.21444 -0.5698,0.30505 -1.07911,-0.37786 -0.8061,-0.8773 0.22839,-0.5151 0.26184,-0.67859 0.61716,-1.12547 0.0989,-0.12438 0.32922,-0.17708 0.33846,-0.33572 0.008,-0.14161 -0.3004,-0.15856 -0.3014,-0.30041 -10e-4,-0.17837 0.54919,-0.53175 0.53508,-0.007 0.28602,1.58747 -0.21514,2.94681 -1.82214,3.50947 -0.0958,-0.0137 -0.72796,-0.0606 -0.86176,-0.20799 -0.53109,-0.58493 0.40255,-2.02782 0.70859,-2.51215 0.17797,-0.16944 0.34855,-0.34698 0.5339,-0.50832 0.14564,-0.12678 0.32809,-0.2119 0.45782,-0.35493 0.0438,-0.0483 -0.012,-0.1504 0.0383,-0.19196 0.41415,-0.3421 0.57299,0.17611 0.57904,0.47263 -0.0829,0.79595 -0.22846,1.75709 -0.99868,2.20602 -1.44306,0.84111 -0.19863,-0.0633 -0.59525,0.22918 -0.24682,-0.0479 -0.42852,-0.0272 -0.57228,-0.28735 -0.45373,-0.82094 -0.26665,-1.88596 -0.45956,-2.76875 0.0156,-0.10817 -1.51422,-0.3291 -1.52984,-0.22093 z" />
    <path
       style="fill:#e9afaf;fill-opacity:1;fill-rule:nonzero;stroke:none;stroke-width:0.264583"
       id="path31333"
       d="m 95.35715,155.30107 c 1.746856,-0.71154 3.341513,-1.73361 5.03827,-2.55129 -0.752671,-0.22916 0.83203,-0.12483 0.62317,-0.18115 -0.12138,-0.0327 -0.25227,-0.0467 -0.37626,-0.0259 -0.054,0.009 0.10177,0.0404 0.15134,0.0636 1.03462,0.4834 -0.66988,-0.29161 0.59774,0.28126 0.72474,0.28805 1.50061,0.30517 2.24613,0.0879 0.0396,-0.006 0.15893,-0.0183 0.11884,-0.0186 -0.55096,-0.003 -0.13827,0.0436 0.0956,0.19687 0.39779,0.27756 0.85712,0.4764 1.33436,0.56789 0.29874,-0.071 0.59139,-0.17616 0.89623,-0.21312 0.14942,-0.0181 -0.26926,0.41758 -0.3789,0.0795 -0.24445,-0.3766 0.27893,0.45897 -0.16614,-0.63521 -0.0211,-0.0519 -0.0512,0.10371 -0.0526,0.15977 -0.0116,0.45696 0.10864,0.65598 0.4931,0.86828 0.30642,0.0919 0.67932,0.1583 0.96591,-0.0189 0.0742,-0.0412 -0.50796,-1.09007 -0.58213,-1.0489 v 0 c 0.0932,-0.11 0.49042,-0.0585 0.23259,-0.0307 -0.013,0.19074 0.0112,-0.28052 0.0971,0.26111 0.0186,0.11721 -0.0177,0.47414 -0.0193,0.35548 -0.0109,-0.76761 0.13094,-0.49962 -0.12876,-0.86167 -0.30474,-0.26752 -0.7484,-0.37378 -1.14201,-0.21833 -0.11097,0.0438 -0.42492,0.14976 -0.30947,0.17987 0.23461,0.0612 0.48254,-0.0479 0.7238,-0.0718 -0.31182,-0.19156 -0.63933,-0.36598 -0.9751,-0.51107 -0.60073,-0.35053 -1.0979,-0.6314 -1.84109,-0.44333 -0.34694,0.0318 -0.36238,0.10058 -0.0234,0.004 0.21975,-0.0629 -0.86764,0.0262 -0.67818,-0.10171 -0.30811,-0.10259 -0.60866,-0.30944 -0.91713,-0.39072 -0.72723,-0.19164 -1.34475,-0.19843 -2.065476,-0.005 -1.87017,0.63958 -3.62739,1.61622 -5.092893,2.95353 -0.08974,0.0802 1.044993,1.3494 1.134737,1.26916 z" />
    <path
       style="fill:#e9afaf;fill-opacity:1;fill-rule:nonzero;stroke:none;stroke-width:0.264583"
       id="path31335"
       d="m 67.271889,68.537322 c -2.164438,1.141005 -4.182465,2.644412 -5.860159,4.431043 -0.441661,0.470339 -0.837808,0.981432 -1.256715,1.472147 -2.553869,3.231092 -3.897281,7.126557 -4.501909,11.164787 -0.103751,0.692933 -0.151527,1.3931 -0.22729,2.089647 -0.576578,6.308458 0.13731,-1.998205 -0.210551,3.574913 -0.03635,0.582416 -0.12578,1.16038 -0.177059,1.741672 -0.153696,1.742313 -0.220358,3.481859 -0.259194,5.229688 0.06288,2.161181 -0.178691,4.322151 -0.07055,6.483011 0.0868,1.73437 0.190315,2.0144 0.489551,3.72912 0.167939,0.60458 0.305943,1.21828 0.503817,1.81374 0.598128,1.79994 0.670369,1.60473 1.445829,3.2971 0.825796,1.80224 1.53389,3.65483 2.219518,5.51333 0.35773,1.20062 0.74187,2.2976 0.900136,3.54539 0.316564,2.49583 -0.140901,5.07661 -0.504275,7.53846 -0.40115,2.91638 -1.313357,5.72012 -1.935435,8.58885 -0.538956,2.48541 -0.483436,2.445 -0.829989,4.97269 -0.497145,3.86538 -0.291627,7.78763 1.131104,11.45206 1.117425,2.87808 1.693087,3.4688 3.383571,6.08807 3.301219,4.38031 7.232121,8.27251 11.540421,11.66172 2.946762,2.31814 4.164978,3.0367 7.253308,5.08178 1.915912,1.26941 3.949949,2.34357 5.902537,3.55204 1.006253,0.62277 2.246,1.2378 2.817738,2.37688 0.508609,1.01331 0.135808,2.09269 -0.01397,3.11929 -0.949973,4.10363 -1.692902,8.26728 -1.536443,12.49981 0.110482,2.98884 0.478832,4.5625 0.980721,7.47747 0.335441,1.9352 0.962228,3.80835 1.329705,5.73652 0.134716,0.70685 0.43873,2.05693 0.02519,2.84757 -0.240432,0.45967 -1.396572,0.79578 -1.694802,0.91516 -2.335911,0.8599 -4.501703,2.11325 -6.207612,3.94959 -0.918435,0.98865 -1.538031,1.96985 -2.303875,3.07564 -2.02202,3.14566 -2.793566,6.11644 -3.230533,9.7719 -0.257331,2.96469 0.05853,5.92478 1.285279,8.66362 0.784794,1.75213 1.324613,2.31607 2.435593,3.80589 0.410557,0.42158 0.800452,0.86432 1.231665,1.26474 0.09845,0.0914 2.050486,1.67482 2.319422,1.51585 2.146895,-1.26912 2.084054,-0.96301 1.518189,-2.09884 -0.943869,-1.26577 -2.1352,-1.70603 -3.386489,-0.41779 -0.06651,0.0824 -0.131868,0.16567 -0.19952,0.24711 -0.350943,0.42243 -0.08715,0.0158 0.078,0.004 0.29672,-0.0214 0.593077,0.0477 0.889617,0.0715 -0.878846,-1.16179 -1.60736,-2.40383 -2.245072,-3.71176 -1.332746,-3.92476 -2.890578,-7.76123 -4.461965,-11.595 -0.966369,-2.64137 -1.541298,-5.44995 -2.832155,-7.96702 -0.201409,-0.39273 -0.441045,-0.76466 -0.661567,-1.14699 -2.012133,-3.01277 -3.677753,-6.24198 -5.533959,-9.35186 -1.0742,-1.72097 -2.175896,-3.39019 -2.679621,-5.37887 -0.451283,-1.78166 -0.568232,-3.67791 -0.841031,-5.49227 -0.830699,-4.31233 -3.391344,-7.52369 -6.590119,-10.41373 -0.866191,-0.78259 -1.793468,-1.49479 -2.690202,-2.24219 -3.413376,-3.02856 -7.607736,-5.21314 -10.566484,-8.74781 -1.577412,-1.88446 -1.611083,-2.33197 -2.589504,-4.4911 -0.195268,-0.74757 -0.448902,-1.48227 -0.585798,-2.2427 -0.656447,-3.6464 -0.189402,-7.9824 0.01836,-11.67608 0.105759,-2.84958 0.08638,-5.70783 -0.299707,-8.53847 -0.132008,-0.96784 -0.339399,-1.92388 -0.508312,-2.88596 -0.804897,-4.58441 -0.333354,-2.16885 -1.349888,-6.89696 -1.100331,-4.86743 -2.386386,-9.70247 -3.985255,-14.43218 -1.041373,-3.08054 -1.463537,-3.98039 -2.686677,-6.96816 -1.183039,-2.87067 -2.558814,-5.68643 -3.425674,-8.67884 -0.375499,-1.29625 -0.767535,-2.91972 -0.579329,-4.30472 0.09209,-0.6777 0.392451,-1.31035 0.588677,-1.96553 1.511797,-3.00642 3.249848,-5.94965 5.301332,-8.626073 1.070454,-1.396543 1.934633,-2.262029 3.128748,-3.542049 1.719328,-1.904688 3.928266,-3.373813 5.481336,-5.435036 0.991097,-1.315381 0.954878,-1.561624 1.549889,-3.120932 0.861674,-4.131519 0.624081,-8.446866 -0.449204,-12.520563 -0.203065,-0.770747 -0.483524,-1.518994 -0.725287,-2.278491 -1.002342,-2.434304 -0.42713,-1.094737 -1.37293,-3.200082 -0.191323,-0.425889 -0.906759,-1.548027 -0.612368,-2.115796 0.06518,-0.125709 0.201811,-0.198686 0.302718,-0.298027 1.722749,-1.242264 3.433453,-2.544948 5.342742,-3.494384 0.512106,-0.254659 1.04545,-0.464158 1.568177,-0.696238 2.376477,-0.979614 4.894662,-1.025379 7.392043,-0.64253 1.087834,0.217311 2.098548,0.689444 3.184665,0.906759 1.453235,0.303393 2.916952,0.520528 4.403418,0.495075 0.09683,-0.0182 0.300056,0.04347 0.290476,-0.05459 -0.0141,-0.144439 -0.220287,-0.189293 -0.324202,-0.290602 -0.07065,-0.06888 -0.136716,-0.295984 -0.198832,-0.219311 -0.224851,0.277551 0.146767,1.849962 0.212132,2.144451 0.262631,0.732282 0.505952,1.59295 1.133367,2.115889 0.162689,0.135598 0.302363,0.378909 0.51408,0.37338 0.484582,-0.01265 0.92755,-0.282089 1.391322,-0.423135 0.0208,-0.01302 0.03817,-0.04292 0.06241,-0.03906 0.06567,0.01045 -0.03521,0.159576 -0.10047,0.172358 -0.472123,0.09248 -0.676974,0.133493 -0.961372,-0.15966 0.165082,0.294717 0.401463,0.534503 0.641638,0.767598 0.279591,0.348806 0.472329,0.749904 0.751803,1.101188 0.472779,0.70889 -0.06973,-1.41869 0.09076,0.122537 0.01016,0.09767 0.05351,0.188973 0.08027,0.283461 0.471284,1.09691 0.194736,0.697389 1.788478,-0.442664 -0.239522,0.05633 -0.479044,0.112665 -0.718563,0.168995 -0.03701,-0.02574 -0.401008,0.497639 -0.364001,0.523378 v 0 c -0.07257,0.131738 -0.145142,0.263474 -0.217715,0.395213 1.889546,-0.868122 2.012849,-0.281839 1.569297,-1.274969 -0.01596,-0.02117 -0.03562,-0.08705 -0.04787,-0.06353 -0.04256,0.08169 -0.03461,0.358476 -0.05962,0.269825 -0.108746,-0.385516 0.02471,-0.751501 -0.229253,-1.086472 C 67.545424,66.626484 67.194475,66.217554 66.860688,65.801 66.63522,65.563176 66.365626,65.378389 66.17738,65.108609 c -0.749625,-0.785768 -1.615268,-0.692706 -2.297567,0.09277 1.768599,-0.294651 0.748522,-0.454385 1.537522,0.12374 0.02093,0.01535 0.005,-0.05274 -0.0016,-0.07783 -0.136186,-0.516099 -0.369443,-1.003305 -0.526285,-1.512475 -0.141251,-0.426616 -0.273056,-0.798507 -0.385049,-1.23172 -0.08877,-0.343379 -0.191018,-1.026453 -0.344283,-1.29195 -0.237845,-0.412009 -0.469511,-0.497514 -0.81814,-0.680569 -1.443773,-0.408368 -2.943251,-0.520287 -4.440287,-0.450773 -1.027774,0.04651 -1.755884,-0.974754 -2.715541,-1.235146 -0.880324,-0.318384 -1.510749,-0.596996 -2.468612,-0.709279 -2.797863,-0.327973 -5.516388,-0.0075 -8.104164,1.128844 -0.583525,0.303501 -1.184452,0.575665 -1.750579,0.910506 -1.517943,0.897808 -3.635086,2.53002 -4.822893,3.860268 -0.278691,0.31211 -0.510916,0.662786 -0.766377,0.99418 -0.442079,1.003458 -0.60707,1.098089 -0.627025,2.190091 -0.03323,1.81878 0.874974,3.541207 1.156121,5.305298 0.517281,2.389857 0.977122,4.776798 1.327618,7.197923 0.128331,0.886476 0.482484,3.433633 0.504079,4.457623 0.01019,0.482939 -0.06875,0.963642 -0.103127,1.445464 -0.129299,0.372488 -0.201379,0.770078 -0.387892,1.117465 -0.420936,0.784 -1.19044,1.416846 -1.845255,1.974165 -1.617614,1.37677 -3.347283,2.627127 -4.830992,4.158361 -3.789667,3.984207 -7.345549,8.319385 -9.080955,13.624665 -0.493735,2.35025 -0.776749,2.90447 -0.643512,5.28926 0.231869,4.15019 1.949736,8.02761 3.434421,11.8401 1.324587,3.35523 2.70342,6.71353 3.759126,10.16674 0.40444,1.32292 1.526204,5.77718 1.862315,7.06078 0.318757,1.21731 0.64707,2.43211 0.970605,3.64817 0.323914,1.15688 0.641591,2.31552 0.971741,3.47064 0.296153,1.03617 0.653378,2.05574 0.907137,3.1031 0.845262,3.48872 0.949534,7.12402 0.879277,10.69319 -0.217882,5.21769 -1.000681,10.29654 0.464058,15.42286 1.063487,2.66568 1.138354,3.33444 2.886183,5.70476 2.864871,3.88519 6.958952,6.59319 10.854018,9.32322 2.355609,1.7066 4.76318,3.37526 6.794989,5.47705 0.450488,0.466 0.897575,0.94404 1.257618,1.483 0.691308,1.03484 0.749051,1.75693 1.031409,2.94246 0.228039,2.01173 0.333883,4.0692 0.827789,6.04019 0.553355,2.20822 1.536792,4.25129 2.733524,6.17773 1.952556,3.0232 4.046,5.94989 6.135169,8.87697 1.403813,2.8082 1.849808,5.94777 2.844297,8.90655 0.209574,0.65514 0.398031,1.31741 0.628719,1.96541 1.212691,3.40647 2.922548,6.60579 4.595743,9.80086 0.971606,1.60936 2.053392,3.17192 3.592547,4.2942 0.423225,0.0891 0.837724,0.2455 1.269675,0.26724 0.502266,0.0253 0.945179,-0.59205 1.288224,-0.87226 0.129117,-0.0871 -0.118271,0.0819 -0.167272,0.0786 -0.324694,-0.0222 -0.643961,-0.10122 -0.959284,-0.18178 -0.02024,-0.005 -0.01577,-0.072 0.0029,-0.0626 0.163542,0.0822 0.250447,0.28044 0.425006,0.34763 0.877247,0.31782 0.394356,0.19578 2.18667,-1.01769 0.06123,-0.0415 -0.07432,-0.12852 -0.120693,-0.18612 -0.364659,-0.45298 -0.785746,-0.85893 -1.13062,-1.3286 -0.301791,-0.3751 -0.590417,-0.76061 -0.885626,-1.14092 -1.076619,-1.60491 -2.113468,-3.23664 -2.702317,-5.09932 -0.551931,-1.74589 -0.590531,-3.58278 -0.570452,-5.39386 0.07209,-1.1439 0.05492,-1.73692 0.326403,-2.8383 0.490776,-1.99101 1.632784,-3.74533 2.611985,-5.517 0.682236,-1.0814 0.922671,-1.60764 1.819601,-2.49732 1.640207,-1.62697 3.835217,-2.49775 5.789141,-3.65971 1.233051,-0.96869 1.941216,-1.29882 2.662055,-2.74991 1.486387,-2.99218 0.237006,-6.82517 -0.112202,-9.91209 -0.524023,-3.40635 -1.152858,-6.86148 -1.150831,-10.32172 0.0011,-1.9177 0.339486,-4.20638 0.530553,-6.11301 0.09366,-0.93461 0.167251,-1.87113 0.250878,-2.80669 -0.05688,-1.83324 0.07879,-3.09652 -0.614154,-4.82111 -1.411282,-3.51235 -5.438873,-5.74089 -8.26177,-7.93022 -3.504634,-2.45639 -7.035853,-4.88181 -10.391246,-7.54249 -1.058632,-0.83945 -2.119516,-1.67915 -3.121533,-2.58543 -1.906701,-1.72453 -3.185433,-3.24759 -4.891429,-5.15016 -1.280485,-1.67103 -2.491621,-3.04377 -3.380952,-4.96573 -1.445249,-3.12338 -1.375886,-6.69718 -1.229457,-10.04619 0.620903,-4.56932 1.65372,-9.0589 2.476632,-13.59319 0.530225,-4.17171 0.830945,-8.40701 -0.538853,-12.4657 -0.737135,-1.95246 -0.739751,-2.13159 -1.69018,-3.97419 -1.02562,-1.98837 -2.262108,-3.87985 -2.700618,-6.11896 -0.626125,-3.17017 -0.874619,-6.41032 -0.608869,-9.638149 0.122057,-1.724279 0.238625,-3.448481 0.311412,-5.175729 0.02437,-0.57834 0.01365,-1.158497 0.05932,-1.735545 0.08942,-1.129707 0.357751,-2.240743 0.429067,-3.372541 0.570209,-2.932223 1.200986,-5.864584 2.174856,-8.694319 0.229698,-0.667425 0.444408,-1.344737 0.756904,-1.977639 0.264446,-0.53558 0.643374,-1.006572 0.965063,-1.509858 1.169069,-1.348271 2.387496,-2.632011 3.644757,-3.89873 0.547804,-0.551924 1.317469,-1.26551 1.835097,-1.874711 0.179641,-0.211423 0.329604,-0.446368 0.494408,-0.669552 0.06395,-0.06955 -0.919686,-0.973986 -0.983639,-0.904433 z" />
    <path
       style="fill:#e9afaf;fill-opacity:1;fill-rule:nonzero;stroke:none;stroke-width:0.264583"
       id="path31337"
       d="m 57.630713,55.831395 c 2.433523,0.254638 4.885986,0.032 7.313869,-0.183261 1.397926,-0.154215 1.594702,-0.310425 1.957033,1.140045 0.293793,1.766676 0.17527,3.555841 0.164078,5.335011 0.02477,1.094425 -0.04279,2.19357 0.133472,3.277684 0.282099,0.986221 1.107324,1.293535 2.015443,1.488226 1.47171,0.215627 2.966103,0.246547 4.451289,0.268944 1.656207,-0.008 3.426428,-0.184981 4.703992,-1.358493 0.248055,-0.227851 0.451827,-0.499642 0.677738,-0.749464 1.107475,-1.385932 1.184119,-3.185136 1.823445,-4.759775 0.287954,-0.418044 0.409004,-0.679881 0.858404,-0.964594 1.386948,-0.878681 3.541448,-1.311285 5.117303,-1.645383 0.594596,-0.08093 1.185527,-0.196103 1.783784,-0.242781 2.873272,-0.224182 6.182852,-0.07141 9.029176,0.405122 0.36158,0.129947 0.749475,0.202168 1.084741,0.389845 1.102715,0.617278 1.8031,1.956678 2.51308,2.928601 1.03548,1.417505 0.97027,1.295043 2.07749,2.60957 1.53167,1.431446 2.8845,3.067314 4.48623,4.424262 0.53654,0.454541 1.10263,0.873003 1.65395,1.309505 1.95353,1.509791 4.0653,2.785157 6.17504,4.058184 0.34018,0.205269 2.22373,1.300459 2.67193,1.717315 0.20338,0.189153 0.31531,0.457322 0.47297,0.685983 0.45135,2.08911 1.0307,4.094001 2.09151,5.97095 0.80457,1.423569 1.87947,2.82612 2.83576,4.14483 1.84827,2.456426 3.39609,5.15263 3.89579,8.22729 0.29372,1.807289 0.17193,2.598475 0.10432,4.426804 -0.86416,5.442705 -2.1523,10.826885 -2.5855,16.332765 -0.0861,1.09397 -0.10534,2.19218 -0.15801,3.28827 0.0165,3.96535 0.99972,7.76603 2.93835,11.22349 0.95432,1.70201 1.52596,2.34701 2.68356,3.86504 2.10155,2.25168 3.72674,4.82292 4.19392,7.91255 0.0873,0.57728 0.10019,1.16339 0.15029,1.74509 -0.0295,2.78821 -0.19385,5.57378 -0.0602,8.362 0.0759,1.58231 0.19611,2.57946 0.35368,4.16386 0.57246,3.32977 1.17355,6.69929 1.08737,10.09312 -0.0202,0.79481 -0.0976,1.58712 -0.14644,2.38069 -0.19307,3.64196 -0.68318,7.29729 -0.37333,10.94868 0.21332,2.51393 0.41083,2.86455 1.03496,5.25513 1.01956,3.02719 2.74707,5.66716 4.96806,7.94415 1.01382,1.03937 1.7585,1.62763 2.85041,2.55126 1.52743,1.33713 3.10894,2.65155 4.253,4.34921 0.5588,0.8292 0.79808,1.34945 1.25625,2.23063 1.12517,2.3985 2.16023,4.83111 3.40156,7.17259 1.42972,2.66431 3.79315,4.62779 5.50535,7.07894 0.85136,1.42823 0.21745,2.69868 -0.16,4.18583 -0.13211,0.52053 -0.24635,1.04543 -0.36952,1.56815 -0.2837,1.49491 -0.56396,3.01773 -0.50446,4.54816 0.0219,0.56274 0.1213,1.48085 0.50361,1.95654 0.27544,0.3427 0.68219,0.55485 1.02328,0.83228 0.61453,-0.0221 1.24166,0.0594 1.84359,-0.0663 0.37212,-0.0777 0.69925,-0.31069 1.00994,-0.52975 1.91981,-1.35355 2.31645,-3.2752 2.77179,-5.42415 0.48714,-3.54976 -0.18729,-7.0799 -0.537,-10.60193 -0.0748,-0.75383 -0.1132,-1.51083 -0.1698,-2.26625 -0.041,-1.51772 -0.14389,-2.80876 0.0772,-4.31753 0.48015,-3.27638 2.04171,-6.5206 3.29594,-9.55384 2.05034,-4.56593 3.85601,-9.2578 5.08981,-14.11538 0.8283,-3.2611 0.88146,-4.04683 1.40943,-7.32661 0.11152,-1.15494 0.25833,-2.30701 0.33457,-3.4648 0.0736,-1.11852 0.0875,-2.24025 0.11488,-3.36085 0.0671,-2.74306 0.12379,-5.13935 -0.13214,-7.89582 -0.38132,-4.10709 -0.79128,-5.31619 -1.69956,-9.37311 -1.78645,-7.24524 -5.29757,-13.87927 -7.65273,-20.92837 -0.35072,-1.04973 -0.62753,-2.12273 -0.9413,-3.18409 -0.54719,-2.38449 -0.78935,-4.38821 0.65235,-6.50805 1.13399,-1.66739 3.00689,-2.74355 4.63818,-3.83647 2.76953,-1.80438 5.31565,-4.03862 6.18923,-7.37097 0.61995,-2.36484 0.30732,-3.31297 0.0751,-5.7187 -0.26849,-0.99476 -0.47639,-2.00788 -0.80546,-2.984267 -1.42745,-4.235445 -3.88741,-8.543464 -6.64463,-12.046257 -0.64073,-0.813977 -1.35331,-1.568727 -2.02997,-2.35309 -2.21865,-2.200415 -1.2127,-1.270193 -3.25834,-3.078192 -0.34028,-0.300751 -0.70776,-0.573029 -1.02225,-0.900652 -0.82825,-0.86284 -1.34168,-2.055357 -1.90378,-3.089656 -2.11642,-3.659081 -5.49771,-6.296866 -8.58696,-9.092282 -1.75409,-1.490937 -3.08812,-3.389296 -4.70044,-5.015917 -1.48275,-1.495915 -1.95905,-1.781366 -3.6551,-3.115543 -4.35875,-2.969636 -8.85717,-5.729065 -13.25234,-8.646226 -1.19015,-0.74286 -1.47753,-0.948418 -2.61135,-1.573496 -0.55983,-0.308639 -1.18225,-0.528436 -1.61171,-1.015897 -1.54749,-2.51642 -4.22048,-3.858514 -6.7638,-5.159975 -5.35786,-2.629427 -11.11517,-4.360368 -17.01926,-5.216123 -1.13398,-0.164362 -2.277739,-0.252288 -3.416609,-0.378433 -3.016144,-0.243608 -6.062085,-0.206611 -9.062148,0.219802 -0.578218,0.08219 -1.139349,0.2574 -1.708647,0.387734 -1.817587,0.416113 -1.052534,0.219789 -2.718234,0.69895 -1.44163,0.547057 -2.9536,1.038494 -3.984162,2.239081 -0.742469,1.291738 0.331118,3.256161 1.521653,0.280876 0.08474,-0.211772 -0.295312,-0.350099 -0.467506,-0.499692 -0.256069,-0.222459 -0.541782,-0.408299 -0.812673,-0.612449 -2.335463,-1.383845 -4.972063,-2.264709 -7.67189,-2.5732 -0.489357,-0.05592 -0.983284,-0.05954 -1.474925,-0.08931 -2.124778,-0.01857 -3.728241,0.109583 -5.337339,1.527559 -1.081172,0.879501 -2.128128,1.800196 -3.136516,2.762168 -0.813938,0.777579 -1.535499,1.639549 -2.107967,2.609035 -0.269002,0.378563 -0.417222,0.936009 -0.832062,1.189035 -0.484544,0.253995 -0.929849,0.565975 -1.358109,0.904957 -0.645342,0.536583 -1.109133,1.238308 -1.527352,1.956594 -0.276405,0.402899 -0.364895,0.886081 -0.549576,1.327218 -0.04781,0.163174 -0.188418,0.271884 -0.294027,0.406657 -0.303072,0.357322 -0.622736,0.675968 -0.867955,1.078524 -0.26711,0.584036 -0.364035,1.212842 -0.270425,1.845968 0.253733,0.85974 0.0357,0.383972 2.117553,0.04962 0.03114,-0.005 0.0582,-0.467114 0.05307,-0.467966 -0.696163,-0.115337 -1.406773,-0.113024 -2.11016,-0.169537 0.09454,0.580202 0.573561,0.304787 1.229347,0.34924 2.64e-4,-0.03798 -0.536753,-0.04328 -0.537128,-0.0053 v 0 c 0.530127,0.187783 0.945761,0.627121 1.362612,0.263969 -4.986195,-1.231759 -1.854298,0.23512 -1.98814,-0.616632 -0.0085,-0.05389 -0.115343,0.142893 -0.0615,0.151651 2.018829,0.328308 1.753936,-0.431916 1.976176,0.294778 0.04827,-0.240467 0.03024,-0.500325 0.137752,-0.725115 0.239059,-0.348946 0.566288,-0.634227 0.768874,-1.010621 0.175885,-0.273838 0.363776,-0.544584 0.474808,-0.852937 0.108035,-0.357172 0.379159,-0.618779 0.562872,-0.939242 0.320582,-0.512109 0.649571,-1.029065 1.12441,-1.414351 0.454848,-0.353547 0.966113,-0.627732 1.388089,-1.023141 0.456962,-0.467474 0.858711,-0.978046 1.198872,-1.537669 0.566695,-0.768413 1.187381,-1.492395 1.934941,-2.091978 1.051917,-0.863256 2.040527,-1.793417 2.931503,-2.824176 0.796764,-0.524772 1.915115,-0.381193 2.814826,-0.337251 2.904199,0.330917 5.705813,1.134552 8.493921,1.9949 0.268171,0.07524 0.533421,0.161814 0.804519,0.225716 0.100607,0.02371 0.221763,0.09359 0.307935,0.03651 1.184209,-0.784508 1.501209,-2.141463 1.909461,-0.512926 0.131648,0.525155 -0.209116,0.287906 -0.04492,0.394829 1.052301,-0.645033 2.228988,-1.013145 3.456318,-1.146603 0.834792,-0.130183 1.784366,-0.295204 2.622804,-0.34925 2.755554,-0.177631 5.533414,0.17513 8.269544,0.422767 6.72631,1.108538 13.4029,2.593774 19.91319,4.626184 2.34653,0.920837 5.02829,1.64438 6.76176,3.591584 1.08926,1.406829 2.2436,2.754368 3.64625,3.868994 1.34022,1.096049 2.36628,1.966433 3.78778,2.98973 2.98404,2.148134 6.22982,3.878914 9.3482,5.816103 1.71119,1.129115 3.48209,2.234496 4.92684,3.711326 0.33779,0.345289 1.82116,2.210644 2.10929,2.549964 0.39737,0.467969 0.81254,0.920523 1.21881,1.380784 1.38642,1.411729 1.45811,1.525455 2.95455,2.878648 1.9007,1.718768 3.93232,3.323876 5.52506,5.351791 0.73511,1.179462 1.39301,2.405089 2.16198,3.563075 0.67496,1.01642 1.12071,1.569492 1.88721,2.574925 0.47222,0.619424 0.94593,1.23771 1.41889,1.856562 3.5643,4.82981 7.21262,9.790107 9.1088,15.548054 0.31482,1.62089 0.6536,2.4778 0.35213,4.10969 -0.50699,2.74426 -3.21684,4.20817 -5.23433,5.75707 -2.13061,1.47323 -4.26679,2.92822 -5.65953,5.1919 -1.68054,2.73147 -1.93444,5.72311 -1.54824,8.84085 0.23973,1.19032 0.42073,2.39399 0.7192,3.57095 0.81163,3.2006 1.51593,4.78297 2.67735,7.90086 1.57354,4.22429 3.16204,8.4487 4.41387,12.78303 0.38419,1.47402 0.80966,2.93789 1.15257,4.42205 1.39602,6.04216 2.04578,11.78061 0.92964,17.92451 -0.21708,1.12151 -0.40392,2.2493 -0.65124,3.36453 -1.31844,5.94509 -3.43254,11.66773 -5.34573,17.43609 -1.85581,5.04969 -3.69317,10.04425 -3.15344,15.52766 0.52417,4.01827 1.27318,8.03516 1.24373,12.10024 -0.0892,1.12198 -0.12942,2.19812 -0.7772,3.16683 -0.12885,0.19268 -0.29418,0.3602 -0.46413,0.51783 -0.12462,0.1156 -0.47743,0.13921 -0.41446,0.29709 0.084,0.21055 0.4217,0.16646 0.63255,0.24969 0.0717,0.18875 0.13786,0.37967 0.21498,0.56626 0.0128,0.031 -0.0253,-0.0649 -0.0216,-0.0982 0.0286,-0.25662 0.073,-0.51134 0.11787,-0.76561 0.25213,-1.42771 0.54377,-2.84904 0.73842,-4.28676 0.36679,-2.52908 0.94335,-5.1973 -0.0933,-7.63794 -1.43021,-2.60531 -3.37144,-4.8358 -5.24311,-7.13082 -0.24272,-0.38117 -0.5084,-0.74866 -0.72815,-1.14352 -0.20831,-0.37431 -0.36578,-0.77477 -0.55365,-1.15975 -0.74941,-1.5356 -1.45463,-3.08917 -2.10475,-4.67038 -0.47991,-1.03238 -0.75733,-1.70822 -1.36933,-2.68702 -1.19413,-1.90982 -2.80789,-3.48198 -4.51019,-4.93617 -2.23039,-2.09613 -4.64067,-4.34044 -5.98904,-7.14331 -0.28737,-0.59737 -0.4634,-1.24218 -0.6951,-1.86327 -0.15874,-0.72046 -0.36083,-1.43273 -0.4762,-2.16139 -0.69294,-4.37663 -0.0999,-8.81894 -0.092,-13.21529 -0.0211,-1.17969 -0.0481,-3.57507 -0.12799,-4.79647 -0.13794,-2.10913 -0.5268,-4.1577 -0.85071,-6.24056 -0.0952,-0.61216 -0.16639,-1.22781 -0.24959,-1.84172 -0.0835,-0.65269 -0.19401,-1.3025 -0.25053,-1.95808 -0.30061,-3.48691 0.12825,-6.99599 -0.1468,-10.48415 -0.16089,-1.80934 -0.1297,-2.47368 -0.65322,-4.23565 -0.78515,-2.64255 -2.38539,-4.8355 -4.05969,-6.9784 -0.91226,-1.31202 -1.47072,-2.03517 -2.23026,-3.46511 -1.58726,-2.98819 -2.33784,-6.22309 -2.2346,-9.61083 0.0661,-1.0054 0.0868,-2.01481 0.19821,-3.01621 0.1178,-1.05892 0.31944,-2.10685 0.48871,-3.15878 0.72317,-4.49437 1.61423,-8.99427 1.56071,-13.568775 0.0317,-2.156653 0.14001,-3.081465 -0.20723,-5.223145 -0.5689,-3.508859 -2.17647,-6.650194 -4.30032,-9.466934 -0.96855,-1.234501 -1.96402,-2.448166 -2.91103,-3.699259 -0.38099,-0.503317 -0.77894,-0.997297 -1.10608,-1.537155 -0.78024,-1.28755 -1.04869,-2.767764 -1.54271,-4.167955 -0.24208,-0.45412 -0.43814,-0.935948 -0.72623,-1.362361 -1.97074,-2.916962 -5.90972,-4.668131 -8.81838,-6.453658 -0.60644,-0.330642 -1.21096,-0.66484 -1.81932,-0.991928 -0.59377,-0.319241 -1.6809,-0.838798 -2.26712,-1.287772 -0.84124,-0.64429 -1.33534,-1.616739 -1.99523,-2.419456 -1.01722,-1.325171 -2.0461,-2.633652 -3.14187,-3.895558 -0.83625,-0.963047 -1.26974,-1.523402 -2.32822,-2.25633 -0.436311,-0.302109 -0.924361,-0.521631 -1.386535,-0.782447 -0.577464,-0.186171 -1.141881,-0.419142 -1.732391,-0.558509 -3.796083,-0.895924 -7.915574,-0.470379 -11.672565,0.389226 -2.692069,0.886809 -5.322202,1.864347 -6.687558,4.538051 -0.515877,1.394481 -0.757595,2.911851 -1.551485,4.185055 -0.120449,0.143478 -0.218337,0.30943 -0.361347,0.430435 -0.876987,0.74205 -2.780717,0.539006 -3.846271,0.701953 -1.087692,0.04715 -2.138749,0.205631 -3.223615,0.206406 -0.207475,0.0013 -0.810715,-0.03431 -0.939794,0.04048 -0.08272,-0.998858 0.259061,-2.028992 0.223607,-3.031297 0.09823,-1.964737 0.09396,-3.971615 -0.443794,-5.878959 -0.114996,-0.295109 -0.198905,-0.604306 -0.344985,-0.885331 -0.874241,-1.681824 -2.259711,-1.707187 -3.976409,-1.75515 -2.414495,-0.03595 -4.851633,0.04576 -7.211542,0.605327 -0.111228,0.03351 0.362636,1.606497 0.473864,1.57299 z" />
    <path
       style="fill:#e9afaf;fill-opacity:1;fill-rule:nonzero;stroke:none;stroke-width:0.264583"
       id="path31363"
       d="m 134.40945,149.5148 c -1.56294,1.34566 -2.91399,2.91468 -4.36227,4.37995 -0.85593,0.86877 -1.83203,1.59944 -2.71672,2.43695 -1.18553,1.15302 -2.16278,2.48998 -3.09787,3.84707 -0.80864,1.23161 -1.4238,2.57129 -1.92067,3.95432 -0.38937,0.98297 -0.94346,1.88486 -1.45601,2.8061 -0.5628,0.93296 -1.11777,1.87021 -1.69094,2.7969 -0.472,0.82576 -0.95074,1.64582 -1.38967,2.49027 -0.35618,0.70487 -0.73406,1.39862 -1.10603,2.09528 -0.14129,0.39921 -0.4343,0.65921 -0.70136,0.96998 -0.33273,0.42641 -0.73492,0.78794 -1.1896,1.07856 -0.77086,0.38066 -1.59047,0.67763 -2.41284,0.92808 -0.84508,0.31985 -1.71494,0.56395 -2.57111,0.85042 -0.76833,0.28073 -1.5454,0.54179 -2.33634,0.75114 -0.86203,0.24126 -1.7061,0.53309 -2.5801,0.73004 -0.94995,0.23327 -1.9128,0.25093 -2.88362,0.21191 -1.24507,-0.0961 -2.502676,-0.10617 -3.752732,-0.11016 -0.997862,-0.0516 -1.997694,0.1296 -2.983809,-0.0501 -0.773792,-0.2227 -1.544764,-0.42259 -2.349841,-0.48151 -0.769033,-0.0533 -1.32428,-0.0376 -1.937105,-0.0282 -0.381968,-0.0129 -0.75066,-0.10896 -1.106463,-0.24187 -0.473814,-0.22983 -0.995829,-0.29127 -1.50272,-0.40373 -0.319527,-0.11574 -0.588801,-0.33453 -0.880562,-0.50558 -0.647015,-0.39822 -0.503894,-0.26005 -1.181749,1.12251 -0.01265,0.0258 0.268743,-0.0434 0.593604,-0.11988 0.03476,0.0155 0.254524,-0.47604 0.219763,-0.49157 v 0 c 0.0699,-0.0275 0.148672,-0.0387 0.209695,-0.0825 0.06476,-0.0465 0.216427,-0.23345 0.156808,-0.18054 -1.123603,0.99715 -0.748821,1.3681 -1.197417,0.98805 0.381013,0.32467 0.808421,0.59262 1.273302,0.78146 0.465275,0.15685 0.944676,0.22304 1.423287,0.32262 0.473299,0.18026 0.947409,0.35475 1.452123,0.42729 0.761561,0.12416 1.279451,0.0553 1.916168,0.0608 0.72772,0.083 1.456817,0.17331 2.150351,0.42399 1.063408,0.29387 2.144564,0.34234 3.244172,0.32234 1.576938,0.0367 3.153685,0.10925 4.731405,0.0726 1.07705,-0.0527 2.16058,-0.12253 3.20747,-0.40079 0.86596,-0.23276 1.71897,-0.50511 2.55682,-0.82515 0.8436,-0.22116 1.71295,-0.35957 2.51827,-0.71438 0.83255,-0.33442 1.66902,-0.6265 2.53935,-0.84987 0.92663,-0.35754 1.87243,-0.71492 2.65,-1.35181 0.49116,-0.41158 0.95911,-0.84629 1.33237,-1.37166 0.29106,-0.36292 0.55715,-0.74311 0.81185,-1.13239 0.4654,-0.68529 0.87089,-1.40262 1.23243,-2.14811 0.40879,-0.81522 0.7445,-1.67033 1.24437,-2.43643 0.58148,-0.94639 1.24051,-1.84658 1.74943,-2.83731 0.53001,-0.95959 0.97383,-1.95615 1.40995,-2.96096 0.64207,-1.24134 1.32479,-2.46281 2.03425,-3.66669 0.78961,-1.33073 1.72319,-2.5594 2.7034,-3.7558 0.84997,-0.88729 1.84399,-1.56909 2.83792,-2.28549 1.59589,-1.36774 3.09259,-2.90074 4.18739,-4.70638 0.0502,-0.0763 -1.02822,-0.78593 -1.0784,-0.70968 z" />
    <path
       style="fill:#e9afaf;fill-opacity:1;fill-rule:nonzero;stroke:none;stroke-width:0.264583"
       id="path31367"
       d="m 96.769863,144.97046 c 1.427607,-0.15163 2.801083,-0.61439 4.129057,-1.14236 0.98238,-0.0838 -0.0812,-1.70555 -0.81427,-0.99398 0.65752,0.94815 0.77052,1.06361 0.77787,0.41353 0.006,-0.003 -0.0426,-0.0828 -0.0483,-0.0794 v 0 c -0.44679,-0.32023 -0.75635,-0.56518 0.0123,0.6618 0.7805,0.23426 0.30503,-1.73296 -0.57516,-1.27535 -1.403721,0.217 -2.792855,0.58569 -4.094967,1.15759 -0.08897,0.0434 0.524446,1.30154 0.613412,1.25817 z" />
    <path
       style="fill:#e9afaf;fill-opacity:1;fill-rule:nonzero;stroke:none;stroke-width:0.264583"
       id="path31369"
       d="m 122.99582,102.28277 c 1.46558,1.08599 2.74611,2.37166 3.86485,3.80887 0.44271,0.63348 0.0923,0.0505 0.60638,-0.34367 0.1431,-0.1097 0.41522,0.0495 0.53403,-0.0862 0.077,-0.0879 -0.20069,-0.11985 -0.30096,-0.1799 -0.15473,-0.0927 -0.30937,-0.1855 -0.46405,-0.27825 -1.12376,-0.72408 -1.96876,-1.79798 -2.87269,-2.76826 -0.29517,-0.3166 -0.62357,-0.60991 -0.87884,-0.96234 -0.009,-0.013 -0.0158,-0.0607 -0.0175,-0.0448 -0.0468,0.43528 0.1034,0.13016 -0.24375,0.5545 -0.88768,-0.46659 -0.21911,0.10128 -0.20206,0.0435 0.005,-0.0184 -0.0219,-0.0727 -0.0123,-0.0561 0.0433,0.0748 0.0763,0.15498 0.11439,0.23247 0.26092,0.37326 0.50366,0.3013 0.92787,0.25316 0.01,0.0113 0.16932,-0.12389 0.15976,-0.13519 v 0 c 0.0492,-0.30808 0.1588,-0.62661 -0.22042,-0.74514 -0.004,0.0314 0.008,0.11703 -0.0134,0.0941 -0.0394,-0.0415 -0.0299,-0.1109 -0.0526,-0.16348 -0.17774,-0.41271 -0.54528,-0.51493 -0.97166,-0.5738 -0.15192,0.0969 -0.34504,0.14851 -0.45575,0.29068 -0.48961,0.62875 0.49307,1.56031 0.80987,1.97106 0.95896,1.06657 1.71443,2.30816 2.89701,3.16027 0.52892,0.36138 1.23109,0.94077 1.94811,0.71867 0.91053,-0.28204 0.74679,-1.26863 0.57182,-1.90336 -1.00686,-2.03953 -2.47718,-3.48656 -4.61661,-4.31584 -0.10104,-0.0786 -1.2126,1.35039 -1.11155,1.42899 z" />
    <path
       style="fill:#e9afaf;fill-opacity:1;fill-rule:nonzero;stroke:none;stroke-width:0.264583"
       id="path31371"
       d="m 121.329,106.80009 c 1.65876,0.76086 3.61161,1.39244 5.46106,1.13713 -0.0538,-0.42742 0.0887,-0.93153 -0.16144,-1.28227 -0.18034,-0.25285 -0.60118,-0.15847 -0.90654,-0.21517 -1.20258,-0.22327 -2.40398,-0.27521 -3.61435,-0.11281 -0.19036,0.0306 -0.50638,-0.0899 -0.57108,0.0918 -0.12306,0.34541 0.004,0.75343 0.15015,1.08973 0.0455,0.10464 0.22607,0.0344 0.34009,0.0385 0.68047,0.0243 1.2422,-0.0805 1.90246,-0.23129 0.36048,-0.10279 2.78966,-0.97281 2.57168,-1.55673 -0.11464,-0.30708 -0.40276,-0.51727 -0.60413,-0.7759 -0.97515,-0.0716 -3.16046,-0.33316 -3.98924,0.35112 -0.11053,0.0913 -0.15853,0.23882 -0.23779,0.35824 0.0469,0.14547 0.0938,0.29094 0.14064,0.43642 5.3e-4,0.0126 0.17964,0.004 0.17903,-0.009 v 0 c 0.0418,0.0574 0.0836,0.11484 0.1254,0.17227 0.67912,0.40519 2.68695,0.17132 3.35967,-0.18964 0.0128,-0.23061 0.0135,-0.4622 0.0383,-0.69182 0.006,-0.0575 0.1123,-0.16632 0.0544,-0.16489 -0.1279,0.003 -0.22707,0.11816 -0.34311,0.17206 -0.61604,0.28618 -1.24961,0.53343 -1.8729,0.80287 -0.6538,0.23605 -0.36748,0.16531 -0.92675,0.2699 -0.10642,0.0199 -0.27267,-0.1026 -0.32472,-0.008 -0.98135,1.78986 0.0493,0.68545 -0.35635,1.10924 1.13983,0.26176 2.29759,0.33365 3.46608,0.32701 0.31967,-0.002 0.68289,0.12963 0.95847,-0.0324 0.43813,-0.25755 0.68115,-0.75445 1.02172,-1.13167 -1.63646,-0.67215 -3.49423,-0.73123 -5.20776,-1.10221 -0.0811,-0.0462 -0.73416,1.10069 -0.65306,1.14686 z" />
    <path
       style="fill:#e9afaf;fill-opacity:1;fill-rule:nonzero;stroke:none;stroke-width:0.264583"
       id="path31373"
       d="m 122.19409,105.86338 c -2.50672,0.13786 -4.93094,0.91341 -7.2944,1.71216 -0.79504,0.37252 -2.33273,0.72494 -0.55348,1.56126 0.008,0.004 1.26912,-0.1395 1.33366,-0.14676 1.40852,-0.24059 2.8451,-0.56495 4.03045,-1.39844 1.27414,-1.78234 -2.51842,-0.5178 -2.84139,-0.41706 -0.19171,0.0752 -1.37239,0.50499 -1.58617,0.70308 -0.38718,0.35878 -0.1645,0.96349 0.30072,1.16817 0.55706,0.24509 2.67584,0.089 3.12619,0.0723 1.84362,-0.0944 3.65645,-0.37025 5.42534,-0.89608 0.14807,-0.044 1.24261,-0.29532 1.41504,-0.6707 0.084,-0.1828 0.007,-0.40226 0.0105,-0.60338 -0.23221,-0.11331 -0.44451,-0.2834 -0.69663,-0.33992 -0.40919,-0.0917 -0.83534,-0.0782 -1.25424,-0.0975 -1.85668,-0.0851 -3.64211,0.12382 -5.45893,0.48338 -1.18396,0.36717 -2.7822,0.62916 -3.51818,1.75673 -0.13196,0.6119 0.50995,0.61489 0.94112,0.53181 0.0836,-0.0161 0.26227,0.0201 0.24726,-0.0637 -0.0502,-0.27996 -0.26282,-0.50448 -0.39424,-0.75671 -1.0227,-0.31652 -3.7848,-0.76993 -4.6641,0.0825 -0.10541,0.1022 -0.12527,0.26558 -0.1879,0.39837 -0.0187,0.007 0.0872,0.27258 0.10596,0.26509 v 0 c 0.13813,0.10172 0.25836,0.23384 0.41436,0.30518 1.25962,0.57595 2.73421,0.0395 3.99444,-0.22709 0.50124,-0.68374 0.69685,-0.68279 0.24217,-0.55934 -0.0701,0.019 -0.14664,0.022 -0.21068,0.0564 -0.0764,0.0411 0.1293,0.28403 0.0221,0.36544 1.13875,-0.45927 2.38729,-0.54305 3.58842,-0.72111 1.35294,-0.16567 2.70249,-0.34191 4.05196,-0.53369 0.30859,-0.0438 1.37727,-0.13874 1.7963,-0.33329 0.14352,-0.0666 0.25023,-0.19375 0.37534,-0.29063 0.0486,-0.13254 0.24085,-0.29318 0.14587,-0.39762 -0.10637,-0.11696 -0.31676,0.0124 -0.47272,0.0382 -0.33414,0.0553 -0.66147,0.14709 -0.99519,0.20482 -1.76217,0.30486 -3.53226,0.56739 -5.28733,0.91629 -0.53738,0.0744 -1.07584,0.14132 -1.61214,0.22314 -0.27537,0.042 -0.58042,0.0103 -0.8224,0.14831 -0.16318,0.093 -0.31059,0.2982 -0.28757,0.48463 0.0428,0.3469 1.84255,-0.47774 1.9864,-0.51399 0.10737,-0.0479 1.89301,-0.8579 1.90409,-0.93393 0.0285,-0.19545 -0.19286,-0.34652 -0.26152,-0.53172 -0.0484,-0.13045 0.20621,-0.17168 -0.14317,-0.0423 -1.22698,0.54728 -2.5321,0.86141 -3.85096,1.10311 -0.26893,0.0604 -1.2796,0.27423 -1.30899,0.33502 -0.74573,1.54266 1.28723,0.86502 1.77048,0.76536 2.32146,-0.64599 4.61504,-1.38333 6.87688,-2.214 0.0701,-0.0285 -0.33256,-1.0204 -0.4027,-0.99192 z" />
    <path
       style="fill:#e9afaf;fill-opacity:1;fill-rule:nonzero;stroke:none;stroke-width:0.264583"
       id="path31375"
       d="m 66.767458,119.88126 c -1.938047,-0.28629 -3.936275,-0.19126 -5.831986,0.30533 -0.646398,0.26218 -0.908253,0.36036 -0.349654,1.33495 0.107502,0.18756 2.169763,0.24097 2.19919,0.24163 0.461168,-0.0404 0.928087,-0.0699 1.385313,-0.1489 0.484513,-0.0837 0.663406,-0.19191 0.649523,-0.21537 -0.83216,-1.40606 -0.669073,-1.18487 -1.81918,-0.99152 -1.143058,0.30015 -1.941941,0.66847 -2.60532,1.65567 -0.02238,0.0151 0.190783,0.33163 0.213167,0.31655 v 0 c 1.090472,0.0775 2.090608,-0.13033 3.099908,-0.56305 0.938687,-0.36355 0.760715,-0.0663 0.49248,-1.47286 -0.004,-0.021 -0.29237,0.0238 -0.477877,0.044 -0.191609,0.0209 -0.383051,0.0442 -0.575249,0.0587 -0.238001,0.018 -0.476658,0.0259 -0.714989,0.0388 -0.313262,0.044 -1.270998,0.0866 -1.282491,0.10745 -0.515192,0.93652 -0.327822,0.90517 0.250671,0.96812 1.911819,0.13137 3.848447,0.0332 5.728875,-0.34363 0.09447,-0.0256 -0.267912,-1.3616 -0.362381,-1.33598 z" />
    <path
       style="fill:#e9afaf;fill-opacity:1;fill-rule:nonzero;stroke:none;stroke-width:0.264583"
       id="path31377"
       d="m 63.010819,112.04681 c -1.439923,2.44736 -2.739938,4.98598 -3.940982,7.55915 -0.222483,0.49453 -1.442577,3.06937 0.361969,2.65255 0.285011,-0.0658 2.0672,-1.57355 2.110734,-1.60912 1.023985,-0.91944 1.951096,-1.9364 2.784623,-3.02997 0.2745,-0.36015 0.507167,-0.66952 0.419563,-0.74444 -0.22875,-0.19563 -0.537321,-0.27144 -0.805979,-0.40716 -1.643131,0.88986 -2.620163,2.48148 -3.377522,4.12817 -0.365456,0.81217 -0.625147,1.91693 0.511984,2.11473 1.363814,0.007 2.495426,-0.0992 3.810815,-0.51172 0.934636,-0.31319 1.687402,-0.90301 2.397474,-1.56449 0.144598,-0.1347 0.332629,-0.24172 0.418921,-0.4195 0.07193,-0.14819 0.150608,-0.38788 0.02426,-0.49356 -0.279969,-0.23418 -0.690994,-0.23543 -1.036492,-0.35314 -1.809832,0.34731 -4.013555,1.14605 -5.192718,2.65959 -0.121798,0.15633 -0.179104,0.35358 -0.268658,0.53038 0.03802,0.16877 -0.02895,0.40897 0.114073,0.5063 1.229934,0.83705 3.952798,-0.58745 5.14569,-1.08956 0.64642,-0.53867 0.875274,-0.97738 -0.393766,-1.26366 -0.196268,-0.0443 -1.013769,0.36374 -1.141775,0.46824 -0.15127,0.12349 -0.243842,0.30507 -0.365765,0.45761 -0.09575,0.10861 -0.191495,0.21721 -0.287242,0.32582 -0.01744,0.0143 0.184893,0.26094 0.202332,0.24663 v 0 c 0.14896,-0.0311 0.297923,-0.0622 0.446884,-0.0932 0.209981,-0.0165 0.424399,-0.003 0.629946,-0.0494 0.269976,-0.0604 0.941422,-0.40013 0.943414,-0.42769 0.01744,-0.24091 -0.255119,-0.41443 -0.335933,-0.64205 -0.09739,-0.2743 0.534829,-0.35068 -0.396497,-0.0339 -0.942403,0.44718 -1.917157,0.79114 -2.879246,1.19375 -0.28557,0.1195 -0.597387,0.19367 -0.851783,0.37005 -0.173779,0.12049 -0.197983,0.33767 -0.232807,0.51962 1.845677,-0.6762 3.495534,-1.79406 5.207135,-2.74136 -0.0044,-0.15843 -0.03475,-0.31829 -0.01312,-0.4753 0.0067,-0.0486 0.134805,-0.14071 0.09419,-0.11316 -0.143119,0.0971 -0.259525,0.23073 -0.405125,0.32402 -0.748176,0.47937 -1.59743,0.78136 -2.359052,1.2368 -1.00244,0.37173 -2.035132,0.5745 -3.090841,0.71864 -0.05481,0.0174 -0.122452,0.013 -0.16443,0.0523 -0.03217,0.0301 -0.01315,0.16929 0.01013,0.13185 0.210219,-0.33796 0.286676,-0.76942 0.566566,-1.06936 0.947618,-1.35301 2.025234,-2.61371 2.869115,-4.03753 -0.170114,-0.20759 -0.300763,-0.45512 -0.510344,-0.62277 -0.0699,-0.0559 -0.325417,0.21135 -0.632598,0.49251 -1.00621,0.92098 -1.991786,1.86512 -2.888438,2.89547 -0.309996,0.37272 -0.624051,0.7421 -0.929989,1.11816 -0.200774,0.24679 -0.524277,0.43893 -0.59001,0.75021 -0.04317,0.20445 0.133654,0.44112 0.317439,0.54053 0.108368,0.0586 0.221771,-0.11521 0.310145,-0.20106 0.597714,-0.58063 0.758158,-0.96224 1.225211,-1.71089 1.355212,-2.52147 2.722779,-5.14356 3.218931,-7.98872 0.02125,-0.0743 -1.02921,-0.37465 -1.050449,-0.30038 z" />
    <path
       style="fill:#e9afaf;fill-opacity:1;fill-rule:nonzero;stroke:none;stroke-width:0.264583"
       id="path31379"
       d="m 65.608998,112.30374 c 3.624988,0.24606 7.244152,-0.47419 10.667661,-1.6204 0.834494,-0.42833 2.433593,-0.80855 0.591461,-1.84646 -0.330462,-0.18619 -2.470206,0.51372 -2.827647,0.62208 -1.824265,0.65566 -3.803912,0.85484 -5.612784,1.54451 0.014,0.20248 -0.0019,0.28802 0.323167,0.42105 0.0455,0.0186 0.676577,-0.12235 0.705443,-0.12585 0.373687,-0.0454 0.55993,-0.0113 0.947068,0.016 0.936395,0.0657 1.897528,0.1721 2.834839,0.0585 0.177564,-0.1033 0.07643,-0.0145 0.03425,-0.40218 -0.01736,-0.005 -0.08514,0.24066 -0.06778,0.24545 v 0 c 0.30708,-0.37569 0.397462,-0.24728 0.223136,-0.41488 -1.034531,-0.31757 -2.170679,-0.22925 -3.234709,-0.20626 -0.204761,0.0302 -3.215068,0.39198 -1.557853,1.09358 2.048161,0.38896 4.160057,-0.44157 6.111983,-0.96501 0.124521,-0.0414 2.389786,-0.81238 2.408915,-0.86068 0.638866,-1.61318 -1.053301,-0.93351 -1.729102,-0.90347 -3.423507,0.58535 -6.836272,1.29715 -10.203077,2.14705 -0.08464,0.0272 0.30039,1.22416 0.385027,1.19694 z" />
    <path
       style="fill:#e9afaf;fill-opacity:1;fill-rule:nonzero;stroke:none;stroke-width:0.264583"
       id="path31381"
       d="m 113.65684,98.304849 c -3.38338,2.377301 -6.31199,5.407701 -8.69869,8.775411 -0.17938,0.32005 -0.4122,0.61555 -0.53812,0.96015 -0.24205,0.66241 0.59593,0.78975 1.11403,0.63793 0.42393,-0.12423 0.7109,-0.52642 1.0422,-0.81864 0.93017,-0.82045 2.11241,-2.06449 2.96118,-2.93153 1.25829,-1.68343 3.02337,-3.24746 4.04594,-5.106269 0.0428,-0.07772 0.1285,-0.208616 0.0563,-0.260091 -0.2472,-0.176144 -0.57083,-0.206629 -0.85625,-0.309943 -0.26611,0.159062 -0.54882,0.293174 -0.79832,0.477189 -1.40208,1.034044 -3.01269,2.737724 -3.9309,4.219314 -0.17755,0.28648 -0.29426,0.60646 -0.4414,0.90968 -0.22033,0.69644 -0.21463,0.39133 -0.15319,0.90258 -0.009,0.0106 0.14111,0.14207 0.15041,0.13143 v 0 c 0.64436,-0.0279 0.28474,0.0439 1.04503,-0.34373 0.2837,-0.21203 0.58817,-0.3988 0.8511,-0.6361 1.49964,-1.35347 2.98014,-3.32243 3.95205,-5.092533 -0.14699,-0.229206 -0.23132,-0.513874 -0.44097,-0.687613 -0.0726,-0.06016 -0.18642,0.04919 -0.26292,0.104305 -0.23228,0.167335 -0.44087,0.365519 -0.6542,0.55641 -1.43055,1.280041 -2.76325,2.661821 -4.0943,4.043511 -0.83032,0.9867 -1.83947,2.13739 -2.59177,3.20339 -0.2446,0.3466 -0.6195,0.66283 -0.66595,1.0845 -0.0843,0.76559 0.41728,1.10755 0.95402,0.84144 0.34292,-0.17001 0.63047,-0.43417 0.9457,-0.65125 3.16038,-2.60207 5.95939,-5.65304 8.18089,-9.100544 0.0643,-0.08286 -1.10756,-0.991857 -1.17183,-0.908997 z" />
    <path
       style="fill:#e9afaf;fill-opacity:1;fill-rule:nonzero;stroke:none;stroke-width:0.264583"
       id="path31383"
       d="m 122.86364,99.049151 c 1.25991,0.741741 2.58479,1.588119 4.03927,1.887879 -0.0101,-0.32334 0.35603,-0.61784 0.2647,-0.92541 -0.0606,-0.204049 -0.38359,-0.184711 -0.57716,-0.273253 -0.81152,-0.371195 -1.62812,-0.692989 -2.47222,-0.981361 -0.77569,-0.179441 -1.58212,-0.645015 -1.43084,0.746508 0.0133,0.121944 0.22835,0.09047 0.33806,0.145344 0.13904,0.06954 0.27146,0.151601 0.40719,0.227404 0.95705,0.554658 1.79864,1.287058 2.74523,1.856338 0.15988,-0.0555 0.31976,-0.11103 0.47964,-0.16654 0.008,0.0112 0.16641,-0.10074 0.15849,-0.11195 v 0 c 0.079,-0.14554 0.15794,-0.29109 0.23692,-0.43664 -0.71455,-1.00346 -1.79503,-1.678518 -2.8865,-2.210027 -0.20546,-0.07442 -0.90956,-0.358936 -1.02055,-0.290639 -1.42022,0.873929 -0.54451,1.052732 0.27434,1.436473 0.85491,0.292843 1.71512,0.541703 2.59077,0.765883 0.22132,0.0567 0.44484,0.21769 0.66618,0.1611 1.1386,-0.29114 1.07374,-0.27858 0.91297,-0.77258 -1.01677,-1.121172 -2.64363,-1.589013 -4.02811,-2.051838 -0.0702,-0.04938 -0.76862,0.943927 -0.69838,0.993309 z" />
    <path
       style="fill:#e9afaf;fill-opacity:1;fill-rule:nonzero;stroke:none;stroke-width:0.264583"
       id="path31529"
       d="m 132.63481,153.77876 c -0.0121,2.61341 0.20286,5.22108 0.23238,7.83584 -0.1036,3.18886 -0.35258,6.36109 -0.27779,9.55397 0.12205,2.46135 0.30608,4.99242 1.30367,7.27784 0.2338,0.60192 1.69962,0.15816 0.80032,-0.53869 -0.0297,-0.0453 -0.67048,0.37471 -0.64079,0.42002 v 0 c 10e-4,0.72308 1.27906,0.54256 1.19305,-0.11974 0.0177,-2.36216 -0.53987,-4.6884 -0.54677,-7.05042 0.0366,-3.18606 0.0889,-6.37073 0.10871,-9.55545 -0.0111,-2.67635 -0.10521,-5.40649 -0.92081,-7.97729 -0.0109,-0.0885 -1.26285,0.0654 -1.25197,0.15392 z" />
    <path
       style="fill:#e9afaf;fill-opacity:1;fill-rule:nonzero;stroke:none;stroke-width:0.264583"
       id="path31531"
       d="m 135.1389,151.41213 c -0.0485,0.38015 -0.12019,0.75806 -0.1455,1.14045 -0.0323,0.48824 -0.016,0.97849 -0.0272,1.46766 -0.0597,2.61906 -0.0747,5.23797 -0.0366,7.85758 0.1047,3.18392 -0.0381,6.36838 -0.0339,9.55286 -0.12651,2.0723 0.32184,4.07381 0.8042,6.06896 0.12863,0.63758 0.2285,1.21151 0.671,1.7012 -0.001,0.012 0.16912,0.0261 0.17012,0.0141 v 0 c 0.53625,-0.55276 0.45743,-1.1842 0.35451,-1.91201 -0.29352,-1.92573 -0.65187,-3.85413 -0.44308,-5.81239 0.29859,-3.20267 0.54706,-6.40765 0.55626,-9.62685 -0.006,-3.11497 -0.0624,-6.3275 -0.69304,-9.39244 -0.078,-0.37914 -0.20739,-0.74588 -0.31109,-1.11881 -0.004,-0.0612 -0.8699,-0.002 -0.86567,0.0597 z" />
    <path
       style="fill:#e9afaf;fill-opacity:1;fill-rule:nonzero;stroke:none;stroke-width:0.264583"
       id="path31533"
       d="m 92.2549,196.55754 c 0.943676,2.12935 2.593475,3.91278 4.531637,5.19192 0.58197,0.38409 1.208747,0.69554 1.813121,1.04331 3.358032,1.43295 6.977462,1.73268 10.579932,1.21554 2.2588,-0.32425 3.46184,-0.88239 5.59752,-1.65196 4.84573,-1.94864 8.99609,-5.15514 13.41045,-7.86999 1.58421,-0.99142 3.41474,-1.41808 5.13535,-2.09496 0.57026,-0.22434 1.24608,-0.54289 1.8136,-0.80402 0.5319,-0.31977 0.94592,-0.42533 -0.0104,-0.92916 -0.14423,-0.076 -0.70102,0.15317 -0.86107,0.19967 -0.35244,0.14362 -0.43814,0.0491 0.25123,0.62659 0.036,0.0301 0.15378,-0.0431 0.11921,-0.0748 -0.15683,-0.14387 -0.36765,-0.2145 -0.55147,-0.32175 -0.0167,0.008 0.0956,0.24396 0.11229,0.23602 v 0 c 0.0346,-0.15828 0.11061,-0.31295 0.10389,-0.47483 -0.002,-0.0412 -0.12219,-0.0296 -0.12312,0.0116 -0.0171,0.75626 -0.0285,0.65821 0.38784,0.64757 0.12924,-0.0198 0.85596,-0.0923 0.89783,-0.22233 0.30227,-0.93842 -0.37525,-0.70417 -0.87241,-0.65643 -2.60049,0.55195 -5.15412,1.30234 -7.62846,2.2799 -1.70556,0.7769 -2.0463,0.89974 -3.7712,1.83231 -3.27107,1.76848 -6.38144,3.83801 -9.78048,5.36598 -0.83866,0.31254 -1.65965,0.67736 -2.51596,0.93764 -3.79624,1.15385 -7.17291,1.15795 -10.96602,-0.0178 -0.569265,-0.24678 -1.161516,-0.44615 -1.707791,-0.74033 -1.936488,-1.04284 -3.481591,-2.70578 -5.042929,-4.21368 -0.03422,-0.0652 -0.95685,0.4187 -0.922628,0.48394 z" />
    <path
       style="fill:#e9afaf;fill-opacity:1;fill-rule:nonzero;stroke:none;stroke-width:0.264583"
       id="path31535"
       d="m 140.08193,191.21563 c -2.30135,1.10684 -4.40582,2.61452 -6.47565,4.10363 -2.65153,1.99199 -5.58015,3.5779 -8.50633,5.12344 -2.5188,1.26256 -5.16075,2.25661 -7.70786,3.46076 -0.86191,0.40746 -2.7502,1.42331 -3.61022,1.88043 -1.75247,0.93651 -3.29888,2.43006 -5.23098,3.02556 -0.9205,0.2837 -1.95702,0.29978 -2.90347,0.36687 -2.05843,0.093 -4.13283,-0.092 -6.186231,0.10343 -1.212688,-0.0733 -1.682758,1.12109 -0.816224,1.84583 0.397116,0.24477 0.775526,0.24143 1.116508,-0.2366 0.06906,-0.0968 -0.07105,-0.22698 -0.10658,-0.34046 0.0073,-0.0266 -0.369572,-0.13002 -0.37688,-0.10337 v 0 c -0.586142,0.25691 -0.02564,-2.6e-4 0.243935,-0.0422 0.253352,-0.0394 0.183989,0.12995 0.224888,0.002 -0.0036,-0.0193 -0.104328,-0.24072 -0.127495,-0.2021 -0.210177,0.3504 -0.182906,0.6128 -0.72326,0.66452 2.449509,0.86856 5.095699,0.9805 7.666889,0.78995 0.58626,-0.0976 1.18173,-0.1506 1.75878,-0.29284 2.59235,-0.63899 4.78727,-2.24551 7.19288,-3.32381 3.7108,-1.89422 7.55228,-3.53167 11.13044,-5.68119 2.90765,-1.70653 5.707,-3.57256 8.40587,-5.59474 1.98765,-1.50359 3.98979,-3.02965 5.73022,-4.81787 0.0517,-0.0494 -0.64755,-0.78034 -0.69923,-0.7309 z" />
    <path
       style="fill:#e9afaf;fill-opacity:1;fill-rule:nonzero;stroke:none;stroke-width:0.264583"
       id="path31537"
       d="m 165.13935,198.10123 c 0.19293,0.17107 0.37827,0.35109 0.57879,0.5132 0.94718,0.76575 1.98237,1.42376 2.96096,2.14773 1.51247,1.11893 1.32979,1.00461 2.92477,2.30779 5.3077,4.34747 10.66976,8.63483 16.23271,12.6524 3.47149,2.24254 7.06925,4.89687 11.30272,5.3394 0.87743,-0.0848 0.44584,0.0321 1.28689,-0.3785 0.0693,-0.0264 -0.3036,-1.00638 -0.3729,-0.98001 v 0 c 0.25413,-0.34042 0.29054,-0.21955 -0.10981,-0.36244 -3.46029,-1.4191 -6.35206,-4.1977 -9.35519,-6.33969 -5.48297,-4.25204 -10.98227,-8.52135 -17.01283,-11.98245 -2.41295,-1.45406 -4.79429,-3.03269 -7.45304,-4.00932 -0.0772,-0.0695 -1.06028,1.02238 -0.98307,1.09189 z" />
    <path
       style="fill:#e9afaf;fill-opacity:1;fill-rule:nonzero;stroke:none;stroke-width:0.264583"
       id="path31539"
       d="m 62.070847,219.82637 c -0.304078,0.10115 -0.612211,0.19083 -0.91223,0.30344 -1.524164,0.5721 -1.719988,0.74399 -3.389694,1.40354 -6.135219,2.42345 0.612331,-0.37879 -6.283068,2.40952 -1.181312,0.47769 -2.350638,0.98451 -3.525959,1.47677 -2.539527,1.17389 -3.592973,1.57346 -5.925653,2.96191 -0.849726,0.50577 -3.325286,1.93208 -3.507164,3.20652 -0.05007,0.35086 0.114089,0.69958 0.171133,1.04937 1.156406,0.81774 1.829514,0.52281 2.928604,-0.1357 0.0465,-0.0224 -0.270671,-0.67994 -0.317167,-0.65751 v 0 c -0.279021,-0.0204 -0.557921,-0.0426 -0.837065,-0.0612 -0.100338,-0.007 -0.222628,-0.0775 -0.30132,-0.0149 -0.101722,0.0809 -0.09216,0.24311 -0.138237,0.36466 -0.02883,0.16269 -0.224795,0.39765 -0.08651,0.48807 0.16024,0.10477 0.362403,-0.12373 0.541907,-0.1903 0.449426,-0.16668 0.896757,-0.33896 1.344768,-0.5094 2.79222,-1.06232 5.583277,-2.13442 8.282943,-3.42009 4.436038,-2.19086 8.870487,-4.50219 12.66667,-7.71998 0.06751,-0.0503 -0.644456,-1.00503 -0.711962,-0.95469 z" />
  </g>
</svg>
